<svg width="24" height="24" viewBox="0 0 24 24" fill="none" xmlns="http://www.w3.org/2000/svg">
<path d="M18.022 4.12243C17.7628 4.11585 17.4964 4.20015 17.2683 4.39562L16.5 5.05333L9.4563 7.68053C9.17992 7.79828 9 8.06972 9 8.37047V14.5089C9 14.8067 9.17671 15.0767 9.44971 15.1959L16.5 17.9029L17.2046 18.6075C17.9133 19.3163 19.125 18.8145 19.125 17.8121V13.4901C20.1762 13.3953 21 12.5131 21 11.4371C21 10.3612 20.1762 9.47896 19.125 9.38415V5.24962C19.125 4.58885 18.5921 4.13691 18.022 4.12243ZM4.74097 8.24962C3.77947 8.24962 3 9.00062 3 9.92687V12.9466C3 13.8733 3.77947 14.6246 4.74097 14.6246H7.875V8.24962H4.74097ZM5.4375 15.7496C5.4375 17.4079 5.74031 18.849 5.96118 19.4051C6.07481 19.6905 6.35059 19.8746 6.65771 19.8746H8.11377C8.61552 19.8746 8.97476 19.3945 8.83301 18.913C8.63876 18.2541 8.4375 16.9147 8.4375 15.7496H5.4375Z" fill="#1C1D20"/>
</svg>
