
<svg width="24" height="24" viewBox="0 0 24 24" fill="none" xmlns="http://www.w3.org/2000/svg">
<path d="M12 4.5C7.8645 4.5 4.5 7.8645 4.5 12C4.5 16.1355 7.8645 19.5 12 19.5C14.4546 19.5 16.6309 18.3093 18 16.481V16.9058C18 18.543 19.3324 19.875 20.9692 19.875C21.3832 19.875 21.7192 19.539 21.7192 19.125C21.7192 18.711 21.3832 18.375 20.9692 18.375C20.1592 18.375 19.5 17.7158 19.5 16.9058V12V11.625H19.4905C19.2943 7.6631 16.0097 4.5 12 4.5ZM12 7.125C12.8284 7.125 13.5 7.79662 13.5 8.625C13.5 9.45337 12.8284 10.125 12 10.125C11.1716 10.125 10.5 9.45337 10.5 8.625C10.5 7.79662 11.1716 7.125 12 7.125ZM8.625 10.5C9.45337 10.5 10.125 11.1716 10.125 12C10.125 12.8284 9.45337 13.5 8.625 13.5C7.79662 13.5 7.125 12.8284 7.125 12C7.125 11.1716 7.79662 10.5 8.625 10.5ZM15.375 10.5C16.2034 10.5 16.875 11.1716 16.875 12C16.875 12.8284 16.2034 13.5 15.375 13.5C14.5466 13.5 13.875 12.8284 13.875 12C13.875 11.1716 14.5466 10.5 15.375 10.5ZM12 11.25C12.414 11.25 12.75 11.5856 12.75 12C12.75 12.4144 12.414 12.75 12 12.75C11.586 12.75 11.25 12.4144 11.25 12C11.25 11.5856 11.586 11.25 12 11.25ZM12 13.875C12.8284 13.875 13.5 14.5466 13.5 15.375C13.5 16.2034 12.8284 16.875 12 16.875C11.1716 16.875 10.5 16.2034 10.5 15.375C10.5 14.5466 11.1716 13.875 12 13.875Z" fill="#1C1D20"/>
</svg>
