<svg width="24" height="24" viewBox="0 0 24 24" fill="none" xmlns="http://www.w3.org/2000/svg">
<path d="M4.47375 15.3745H7.09125C7.45875 17.122 8.1075 18.607 8.94 19.6608C6.9525 18.8695 5.34375 17.3208 4.47375 15.3745ZM11.4375 20.167C10.035 19.7658 8.835 17.887 8.25 15.3745H11.4375V20.167ZM12.5625 15.3745H15.75C15.165 17.887 13.965 19.7658 12.5625 20.167V15.3745ZM15.06 19.6608C15.8925 18.607 16.5413 17.122 16.9088 15.3745H19.5262C18.6562 17.3208 17.0475 18.8695 15.06 19.6608ZM6.75 11.9995C6.75 12.7795 6.8025 13.5295 6.89625 14.2495H4.06125C3.85875 13.5333 3.75 12.7795 3.75 11.9995C3.75 11.2195 3.85875 10.4658 4.06125 9.74953H6.89625C6.8025 10.4695 6.75 11.2195 6.75 11.9995ZM7.875 11.9995C7.875 11.2233 7.935 10.4695 8.04 9.74953H11.4375V14.2495H8.04C7.935 13.5295 7.875 12.7758 7.875 11.9995ZM16.125 11.9995C16.125 12.7758 16.065 13.5295 15.96 14.2495H12.5625V9.74953H15.96C16.065 10.4695 16.125 11.2233 16.125 11.9995ZM19.9387 9.74953C20.1412 10.4658 20.25 11.2195 20.25 11.9995C20.25 12.7795 20.1412 13.5333 19.9387 14.2495H17.1038C17.1975 13.5295 17.25 12.7795 17.25 11.9995C17.25 11.2195 17.1975 10.4695 17.1038 9.74953H19.9387ZM8.94 4.33828C8.1075 5.39203 7.45875 6.87703 7.09125 8.62453H4.47375C5.34375 6.67828 6.9525 5.12953 8.94 4.33828ZM8.25 8.62453C8.835 6.11203 10.035 4.23328 11.4375 3.83203V8.62453H8.25ZM12.5625 3.83203C13.965 4.23328 15.165 6.11203 15.75 8.62453H12.5625V3.83203ZM19.5262 8.62453H16.9088C16.5413 6.87703 15.8925 5.39203 15.06 4.33828C17.0475 5.12953 18.6562 6.67828 19.5262 8.62453Z" fill="#1C1D20"/>
</svg>
