<svg width="24" height="25" viewBox="0 0 24 25" fill="none" xmlns="http://www.w3.org/2000/svg">
<path d="M12 4.25C16.5562 4.25 20.25 7.94375 20.25 12.5C20.25 17.0562 16.5562 20.75 12 20.75C7.44375 20.75 3.75 17.0562 3.75 12.5C3.75 7.94375 7.44375 4.25 12 4.25ZM11.811 16.6276C12.399 16.6276 12.7507 16.1675 12.7507 15.7284C12.7507 15.2893 12.3863 14.8291 11.811 14.8291C11.2358 14.8291 10.8709 15.3155 10.8709 15.7284C10.8709 16.1413 11.223 16.6276 11.811 16.6276ZM12.567 13.4705C12.567 12.227 14.7431 12.3538 14.7431 10.364C14.7431 9.365 13.8266 8.31087 12.0971 8.31087C10.7512 8.31087 9.4305 9.01625 9.4305 10.0782C9.4305 10.2759 9.55387 10.6914 10.0538 10.6914C10.3256 10.6914 10.5041 10.5811 10.6571 10.4289C10.9991 10.0884 11.2114 9.53675 12.0461 9.53675C12.3799 9.53675 13.1494 9.70588 13.1494 10.5073C13.1494 11.7193 11.106 11.6716 11.106 13.3985C11.106 13.9389 11.3422 14.1751 11.8312 14.1751C12.606 14.1755 12.567 13.541 12.567 13.4705Z" fill="#1C1D20"/>
</svg>
