<svg width="24" height="24" viewBox="0 0 24 24" fill="none" xmlns="http://www.w3.org/2000/svg">
<path d="M12.0002 2.85742C11.8615 2.85742 11.7226 2.89513 11.5989 2.97388L3.21045 8.26929C2.99295 8.40804 2.85742 8.64783 2.85742 8.90283C2.85742 9.16158 2.99295 9.40129 3.21045 9.54004L11.5989 14.8354C11.7226 14.9104 11.8615 14.9512 12.0002 14.9512C12.139 14.9512 12.2779 14.9104 12.4016 14.8354L20.79 9.54004C21.0075 9.40129 21.1431 9.16158 21.1431 8.90283C21.1431 8.64783 21.0075 8.40804 20.79 8.26929L12.4016 2.97388C12.2779 2.89513 12.139 2.85742 12.0002 2.85742ZM3.60376 11.1191L3.21045 11.3667C2.99295 11.5017 2.85742 11.7415 2.85742 12.0002C2.85742 12.259 2.99295 12.4988 3.21045 12.6338L11.5989 17.9292C11.7226 18.0079 11.8615 18.0449 12.0002 18.0449C12.139 18.0449 12.2779 18.0079 12.4016 17.9292L20.79 12.6338C21.0075 12.4988 21.1431 12.259 21.1431 12.0002C21.1431 11.7415 21.0075 11.5017 20.79 11.3667L20.3967 11.1191C20.3967 11.1191 13.0012 15.7881 12.9824 15.7993C12.6824 15.9793 12.3415 16.0762 12.0002 16.0762C11.659 16.0762 11.3178 15.9788 10.999 15.7876L3.60376 11.1191ZM3.60376 14.2129L3.21045 14.4604C2.99295 14.5992 2.85742 14.8389 2.85742 15.0977C2.85742 15.3527 2.99295 15.5925 3.21045 15.7312L11.2012 20.7717C11.4412 20.9255 11.7227 21.0039 12.0002 21.0039C12.2777 21.0039 12.5593 20.9255 12.7993 20.7717L20.79 15.7312C21.0075 15.5925 21.1431 15.3527 21.1431 15.0977C21.1431 14.8389 21.0075 14.5992 20.79 14.4604L20.3967 14.2129L13.0051 18.8777C12.7051 19.0689 12.3565 19.1699 12.0002 19.1699C11.644 19.1699 11.2953 19.0688 10.999 18.8813L3.60376 14.2129Z" fill="#1C1D20"/>
</svg>
