<svg width="113" height="30" viewBox="0 0 113 30" fill="none" xmlns="http://www.w3.org/2000/svg">
<mask id="mask0_11_420" style="mask-type:alpha" maskUnits="userSpaceOnUse" x="1" y="0" width="30" height="29">
<ellipse cx="15.7238" cy="14.2105" rx="14.5143" ry="14.2105" fill="black"/>
</mask>
<g mask="url(#mask0_11_420)">
<path d="M15.7241 0.25C23.607 0.250173 29.9878 6.50582 29.9878 14.2109C29.9876 21.9159 23.6068 28.1707 15.7241 28.1709C7.84128 28.1709 1.4597 21.916 1.45947 14.2109C1.45947 6.50571 7.84114 0.25 15.7241 0.25Z" fill="white" stroke="white" stroke-width="0.5"/>
<path d="M18.5356 11.4763C18.5356 13.0335 17.2485 14.2958 15.6609 14.2958C14.0732 14.2958 12.7862 13.0335 12.7862 11.4763C12.7862 9.91909 14.0732 8.65674 15.6609 8.65674C17.2485 8.65674 18.5356 9.91909 18.5356 11.4763Z" fill="black"/>
<path fill-rule="evenodd" clip-rule="evenodd" d="M5.29103 19.2925C5.42941 19.0091 5.57935 18.7324 5.74029 18.463C6.29278 17.538 7.61089 17.7032 8.09377 18.6649C11.1919 24.8352 20.104 24.9919 23.4257 18.9346C23.9434 17.9904 25.2667 17.8717 25.785 18.8155C25.936 19.0904 26.0757 19.3722 26.2037 19.6603C27.2334 21.979 27.4387 24.5699 26.7865 27.0168C26.6076 27.6882 27.0936 28.3936 27.8011 28.3936L30.5486 28.3936C30.7406 28.3936 30.9098 28.2687 30.9584 28.0865C31.8551 24.722 31.5729 21.1595 30.1569 17.9713C29.3198 16.0864 28.1152 14.397 26.6249 12.9904C24.909 11.3707 22.2365 12.1745 21.1085 14.2316L19.6281 16.9312C17.9672 19.9599 13.5112 19.8815 11.9621 16.7963L10.5814 14.0465C9.52926 11.951 6.88789 11.0537 5.11384 12.612C3.57313 13.9653 2.30752 15.6113 1.40205 17.4655C-0.129522 20.6019 -0.541821 24.1522 0.231377 27.5461C0.346401 28.0509 0.814233 28.3936 1.34168 28.3936L3.10981 28.3936C4.01445 28.3936 4.63691 27.4897 4.43963 26.6237C3.87731 24.1555 4.17716 21.5735 5.29103 19.2925ZM6.71304 15.915C6.7131 15.9152 6.71312 15.9151 6.71304 15.915C6.70778 15.908 6.70897 15.9069 6.71304 15.915ZM24.906 16.235C24.9104 16.2271 24.9116 16.2281 24.906 16.235C24.906 16.2351 24.906 16.2351 24.906 16.235Z" fill="black"/>
</g>
<path d="M53.3196 11.672C54.0876 11.672 54.7656 11.828 55.3536 12.14C55.9536 12.44 56.4216 12.908 56.7576 13.544C57.1056 14.168 57.2796 14.972 57.2796 15.956V21.5H54.4716V16.388C54.4716 15.608 54.3096 15.032 53.9856 14.66C53.6616 14.288 53.2056 14.102 52.6176 14.102C52.2096 14.102 51.8436 14.198 51.5196 14.39C51.1956 14.57 50.9436 14.846 50.7636 15.218C50.5836 15.59 50.4936 16.064 50.4936 16.64V21.5H47.6856V16.388C47.6856 15.608 47.5236 15.032 47.1996 14.66C46.8876 14.288 46.4376 14.102 45.8496 14.102C45.4416 14.102 45.0756 14.198 44.7516 14.39C44.4276 14.57 44.1756 14.846 43.9956 15.218C43.8156 15.59 43.7256 16.064 43.7256 16.64V21.5H40.9176V11.816H43.5996V14.462L43.0956 13.688C43.4316 13.028 43.9056 12.53 44.5176 12.194C45.1416 11.846 45.8496 11.672 46.6416 11.672C47.5296 11.672 48.3036 11.9 48.9636 12.356C49.6356 12.8 50.0796 13.484 50.2956 14.408L49.3056 14.138C49.6296 13.382 50.1456 12.782 50.8536 12.338C51.5736 11.894 52.3956 11.672 53.3196 11.672ZM64.2948 21.644C63.2628 21.644 62.3448 21.428 61.5408 20.996C60.7488 20.564 60.1188 19.976 59.6508 19.232C59.1948 18.476 58.9668 17.618 58.9668 16.658C58.9668 15.686 59.1948 14.828 59.6508 14.084C60.1188 13.328 60.7488 12.74 61.5408 12.32C62.3448 11.888 63.2628 11.672 64.2948 11.672C65.3148 11.672 66.2268 11.888 67.0308 12.32C67.8348 12.74 68.4648 13.322 68.9208 14.066C69.3768 14.81 69.6048 15.674 69.6048 16.658C69.6048 17.618 69.3768 18.476 68.9208 19.232C68.4648 19.976 67.8348 20.564 67.0308 20.996C66.2268 21.428 65.3148 21.644 64.2948 21.644ZM64.2948 19.34C64.7628 19.34 65.1828 19.232 65.5548 19.016C65.9268 18.8 66.2208 18.494 66.4368 18.098C66.6528 17.69 66.7608 17.21 66.7608 16.658C66.7608 16.094 66.6528 15.614 66.4368 15.218C66.2208 14.822 65.9268 14.516 65.5548 14.3C65.1828 14.084 64.7628 13.976 64.2948 13.976C63.8268 13.976 63.4068 14.084 63.0348 14.3C62.6628 14.516 62.3628 14.822 62.1348 15.218C61.9188 15.614 61.8108 16.094 61.8108 16.658C61.8108 17.21 61.9188 17.69 62.1348 18.098C62.3628 18.494 62.6628 18.8 63.0348 19.016C63.4068 19.232 63.8268 19.34 64.2948 19.34ZM75.2617 21.644C74.1217 21.644 73.2337 21.356 72.5977 20.78C71.9617 20.192 71.6437 19.322 71.6437 18.17V9.674H74.4517V18.134C74.4517 18.542 74.5597 18.86 74.7757 19.088C74.9917 19.304 75.2857 19.412 75.6577 19.412C76.1017 19.412 76.4797 19.292 76.7917 19.052L77.5477 21.032C77.2597 21.236 76.9117 21.392 76.5037 21.5C76.1077 21.596 75.6937 21.644 75.2617 21.644ZM70.1497 14.192V12.032H76.8637V14.192H70.1497ZM78.944 21.5V11.816H81.752V21.5H78.944ZM80.348 10.466C79.832 10.466 79.412 10.316 79.088 10.016C78.764 9.716 78.602 9.344 78.602 8.9C78.602 8.456 78.764 8.084 79.088 7.784C79.412 7.484 79.832 7.334 80.348 7.334C80.864 7.334 81.284 7.478 81.608 7.766C81.932 8.042 82.094 8.402 82.094 8.846C82.094 9.314 81.932 9.704 81.608 10.016C81.296 10.316 80.876 10.466 80.348 10.466ZM84.178 21.5V11.816H86.986V21.5H84.178ZM85.582 10.466C85.066 10.466 84.646 10.316 84.322 10.016C83.998 9.716 83.836 9.344 83.836 8.9C83.836 8.456 83.998 8.084 84.322 7.784C84.646 7.484 85.066 7.334 85.582 7.334C86.098 7.334 86.518 7.478 86.842 7.766C87.166 8.042 87.328 8.402 87.328 8.846C87.328 9.314 87.166 9.704 86.842 10.016C86.53 10.316 86.11 10.466 85.582 10.466ZM94.0201 21.644C92.9881 21.644 92.0701 21.428 91.2661 20.996C90.4741 20.564 89.8441 19.976 89.3761 19.232C88.9201 18.476 88.6921 17.618 88.6921 16.658C88.6921 15.686 88.9201 14.828 89.3761 14.084C89.8441 13.328 90.4741 12.74 91.2661 12.32C92.0701 11.888 92.9881 11.672 94.0201 11.672C95.0401 11.672 95.9521 11.888 96.7561 12.32C97.5601 12.74 98.1901 13.322 98.6461 14.066C99.1021 14.81 99.3301 15.674 99.3301 16.658C99.3301 17.618 99.1021 18.476 98.6461 19.232C98.1901 19.976 97.5601 20.564 96.7561 20.996C95.9521 21.428 95.0401 21.644 94.0201 21.644ZM94.0201 19.34C94.4881 19.34 94.9081 19.232 95.2801 19.016C95.6521 18.8 95.9461 18.494 96.1621 18.098C96.3781 17.69 96.4861 17.21 96.4861 16.658C96.4861 16.094 96.3781 15.614 96.1621 15.218C95.9461 14.822 95.6521 14.516 95.2801 14.3C94.9081 14.084 94.4881 13.976 94.0201 13.976C93.5521 13.976 93.1321 14.084 92.7601 14.3C92.3881 14.516 92.0881 14.822 91.8601 15.218C91.6441 15.614 91.5361 16.094 91.5361 16.658C91.5361 17.21 91.6441 17.69 91.8601 18.098C92.0881 18.494 92.3881 18.8 92.7601 19.016C93.1321 19.232 93.5521 19.34 94.0201 19.34ZM106.913 11.672C107.681 11.672 108.365 11.828 108.965 12.14C109.577 12.44 110.057 12.908 110.405 13.544C110.753 14.168 110.927 14.972 110.927 15.956V21.5H108.119V16.388C108.119 15.608 107.945 15.032 107.597 14.66C107.261 14.288 106.781 14.102 106.157 14.102C105.713 14.102 105.311 14.198 104.951 14.39C104.603 14.57 104.327 14.852 104.123 15.236C103.931 15.62 103.835 16.112 103.835 16.712V21.5H101.027V11.816H103.709V14.498L103.205 13.688C103.553 13.04 104.051 12.542 104.699 12.194C105.347 11.846 106.085 11.672 106.913 11.672Z" fill="white"/>
</svg>
