<?xml version="1.0" standalone="no"?>
<!DOCTYPE svg PUBLIC "-//W3C//DTD SVG 20010904//EN"
 "http://www.w3.org/TR/2001/REC-SVG-20010904/DTD/svg10.dtd">
<svg version="1.0" xmlns="http://www.w3.org/2000/svg"
 width="816.000000pt" height="816.000000pt" viewBox="0 0 816.000000 816.000000"
 preserveAspectRatio="xMidYMid meet">
<metadata>
Created by potrace 1.14, written by Peter Selinger 2001-2017
</metadata>
<g transform="translate(0.000000,816.000000) scale(0.100000,-0.100000)"
fill="#000000" stroke="none">
<path d="M3979 6675 c-2 -2 -21 -6 -42 -9 -51 -8 -165 -49 -207 -75 -19 -11
-42 -24 -50 -28 -8 -4 -20 -12 -27 -17 -7 -6 -27 -22 -44 -36 -137 -108 -227
-267 -264 -465 -12 -65 -4 -232 15 -293 17 -54 17 -56 18 -65 2 -13 76 -152
89 -165 7 -7 13 -18 13 -23 0 -16 134 -143 190 -180 63 -42 137 -76 210 -98
77 -23 219 -32 309 -18 53 8 164 38 171 46 3 3 11 7 18 9 7 1 25 10 39 19 14
10 32 18 40 19 34 5 238 199 227 216 -3 4 -1 8 4 8 16 0 92 157 107 220 2 8
17 84 21 105 7 34 6 148 0 185 -13 75 -15 86 -24 115 -48 150 -131 274 -252
376 -50 42 -157 97 -240 124 -68 22 -108 28 -201 31 -65 1 -119 1 -120 -1z"/>
<path d="M1784 5840 c-3 -2 -17 -6 -32 -7 -95 -12 -227 -69 -323 -140 -109
-79 -314 -282 -453 -448 -234 -278 -383 -505 -562 -855 -21 -41 -39 -77 -39
-80 -4 -15 -18 -47 -26 -63 -5 -9 -23 -52 -40 -95 -16 -42 -39 -96 -49 -119
-11 -24 -20 -47 -20 -52 0 -5 -5 -22 -11 -38 -6 -15 -10 -29 -10 -30 0 -2 -8
-27 -18 -55 -46 -125 -135 -498 -156 -653 -15 -109 -26 -208 -33 -285 -9 -106
-8 -571 1 -665 13 -130 18 -176 22 -194 2 -10 6 -42 10 -71 4 -29 9 -62 11
-74 3 -12 7 -38 10 -60 2 -21 6 -42 9 -46 3 -4 7 -25 10 -46 11 -74 43 -147
84 -192 53 -57 163 -98 249 -93 34 2 38 2 197 2 83 0 161 0 175 -1 186 -11
333 91 386 267 20 67 20 150 -1 249 -9 43 -18 90 -20 104 -2 14 -6 39 -8 55
-12 70 -18 114 -24 180 -9 98 -8 424 2 520 4 44 8 95 9 112 0 18 3 33 7 33 3
0 5 10 5 23 1 46 38 234 65 330 7 23 13 47 14 52 16 77 103 309 162 435 25 52
49 104 54 115 5 11 23 43 39 70 16 28 34 59 39 71 12 26 78 95 112 116 84 53
212 57 312 11 85 -40 142 -101 201 -214 53 -101 146 -252 158 -257 5 -2 8 -8
8 -14 0 -18 148 -196 239 -287 88 -88 190 -179 219 -195 10 -5 22 -15 29 -22
27 -27 187 -127 284 -178 111 -58 289 -131 404 -164 84 -25 243 -62 253 -60 4
1 25 -1 47 -5 72 -13 255 -30 320 -29 48 0 264 13 280 16 11 2 43 7 70 10 157
21 334 67 485 128 76 30 281 127 290 137 3 4 19 13 35 21 17 8 32 17 35 20 3
3 39 27 80 54 256 167 506 441 678 742 100 175 201 246 352 247 146 1 233 -67
326 -255 54 -110 143 -324 159 -383 11 -38 8 -28 34 -114 23 -73 29 -97 36
-136 3 -11 9 -38 14 -60 11 -43 17 -77 26 -140 4 -22 8 -47 10 -55 4 -14 7
-35 21 -180 9 -85 8 -461 -1 -525 -4 -27 -8 -68 -10 -90 -3 -39 -11 -96 -21
-145 -2 -14 -7 -38 -10 -54 -4 -26 -28 -130 -42 -186 -4 -14 -6 -56 -6 -93 2
-121 79 -230 186 -262 39 -11 147 -17 258 -14 8 0 67 0 130 0 63 0 122 0 130
0 8 0 62 0 120 0 186 -1 200 1 229 37 31 36 78 221 106 412 4 25 8 56 10 70
14 88 25 177 32 260 10 119 10 559 0 665 -12 128 -17 178 -22 205 -3 14 -8 48
-11 75 -3 28 -8 57 -11 65 -2 8 -7 31 -9 50 -2 19 -7 46 -10 60 -4 14 -8 34
-9 45 -2 11 -8 38 -13 60 -6 22 -13 51 -16 65 -20 98 -109 392 -143 470 -3 8
-7 17 -7 20 -3 14 -38 99 -74 180 -40 90 -55 125 -56 130 -1 3 -7 14 -13 25
-6 11 -36 69 -68 129 -31 60 -65 122 -76 137 -10 15 -19 30 -19 33 0 7 -31 57
-89 145 -20 29 -40 61 -46 69 -14 23 -168 236 -175 242 -3 3 -25 30 -50 60
-25 30 -52 63 -60 73 -77 94 -292 307 -357 353 -132 95 -285 145 -453 148
-150 3 -308 -41 -470 -130 -139 -76 -305 -245 -388 -395 -79 -143 -128 -233
-183 -339 -24 -47 -46 -87 -49 -90 -3 -3 -20 -34 -39 -70 -165 -320 -220 -403
-350 -528 -65 -63 -188 -152 -210 -152 -6 0 -11 -3 -11 -8 0 -9 -98 -53 -185
-82 -33 -11 -60 -20 -60 -19 0 0 -18 -4 -40 -9 -67 -18 -145 -25 -250 -25
-132 0 -198 9 -301 39 -209 60 -369 156 -508 305 -116 124 -120 132 -441 783
-95 193 -167 326 -203 375 -166 224 -409 379 -652 418 -44 7 -230 10 -236 3z"/>
</g>
</svg>
