<svg width="12" height="12" viewBox="0 0 12 12" fill="none" xmlns="http://www.w3.org/2000/svg">
<path d="M6 1.875C8.27812 1.875 10.125 3.72188 10.125 6C10.125 8.27812 8.27812 10.125 6 10.125C3.72188 10.125 1.875 8.27812 1.875 6C1.875 3.72188 3.72188 1.875 6 1.875ZM8.00231 4.77863C8.115 4.60481 8.06531 4.3725 7.8915 4.26C7.71713 4.1475 7.48519 4.197 7.37269 4.37081L5.55225 7.18069L4.59413 6.0915C4.45744 5.93606 4.22025 5.92069 4.06481 6.05775C3.90938 6.19444 3.89419 6.43144 4.03087 6.58706L5.31619 8.04788C5.38781 8.12906 5.49056 8.17519 5.59781 8.17519C5.607 8.17519 5.61619 8.17481 5.62519 8.17425C5.74237 8.16563 5.8485 8.10262 5.91244 8.00419L8.00231 4.77863Z" fill="#009181"/>
</svg>
