<svg width="77" height="92" viewBox="0 0 77 92" fill="none" xmlns="http://www.w3.org/2000/svg">
<g opacity="0.1">
<path d="M90.9963 14.1429C90.9963 21.9537 84.7283 28.2857 76.9963 28.2857C69.2643 28.2857 62.9963 21.9537 62.9963 14.1429C62.9963 6.33197 69.2643 0 76.9963 0C84.7283 0 90.9963 6.33197 90.9963 14.1429Z" fill="#009E8D"/>
<path fill-rule="evenodd" clip-rule="evenodd" d="M26.4942 53.3488C27.1681 51.9274 27.8984 50.5396 28.6822 49.1881C31.3728 44.5485 37.7922 45.377 40.1438 50.2009C55.2321 81.151 98.6345 81.9373 114.812 51.5535C117.333 46.8179 123.777 46.2225 126.302 50.9565C127.037 52.3355 127.718 53.7489 128.341 55.1938C133.356 66.8244 134.355 79.8204 131.179 92.094C130.308 95.4616 132.675 99 136.12 99H149.501C150.436 99 151.26 98.3735 151.496 97.4596C155.864 80.5833 154.489 62.7139 147.593 46.7218C143.517 37.2672 137.65 28.7931 130.392 21.7375C122.035 13.6132 109.02 17.6452 103.526 27.9637L96.317 41.5046C88.2285 56.6965 66.5273 56.3033 58.9831 40.8283L52.2588 27.035C47.1348 16.5241 34.2711 12.0233 25.6313 19.8397C18.1279 26.628 11.9643 34.8841 7.55455 44.185C0.0956872 59.9171 -1.91225 77.7252 1.8533 94.7488C2.41347 97.2813 4.69186 99 7.26059 99H15.8715C20.2772 99 23.3086 94.466 22.3479 90.1226C19.6093 77.7417 21.0696 64.7903 26.4942 53.3488ZM33.4195 36.4076C33.4198 36.4082 33.4199 36.4082 33.4195 36.4076C33.3939 36.3722 33.3997 36.367 33.4195 36.4076ZM122.021 38.0126C122.042 37.9727 122.048 37.9782 122.021 38.0126C122.021 38.0132 122.021 38.0132 122.021 38.0126Z" fill="#009E8D"/>
</g>
</svg>
