<svg width="24" height="24" viewBox="0 0 24 24" fill="none" xmlns="http://www.w3.org/2000/svg">
<path d="M15.8776 3.31445C15.8272 3.31455 15.776 3.31942 15.7231 3.32837L11.4773 4.07617L16.969 6.07495L16.5918 3.93628C16.5137 3.52809 16.2305 3.31376 15.8776 3.31445ZM9.39132 4.57715C9.0995 4.59193 8.83085 4.77785 8.72481 5.07007L6.31954 11.6772C5.01679 15.2581 9.59213 20.4659 10.1179 21.0479C10.2611 21.2065 10.4638 21.2947 10.6745 21.2947C10.7083 21.2947 10.7426 21.293 10.7771 21.2881C11.5541 21.1801 18.4069 20.1313 19.7104 16.5508L22.115 9.9436C22.2563 9.55436 22.0552 9.12442 21.666 8.98267L9.68575 4.62183C9.58863 4.58639 9.48859 4.57222 9.39132 4.57715ZM7.64229 4.75293L3.16646 5.54175C2.75846 5.61375 2.4862 6.00313 2.55782 6.41113L3.77877 13.3355C3.98089 14.4822 4.73674 15.485 5.70724 16.3333C5.02061 14.6821 4.67955 12.8921 5.26192 11.292L7.64229 4.75293ZM10.8349 9.55469C11.0295 9.54474 11.2292 9.57317 11.4238 9.64404C12.2023 9.92754 12.6038 10.7882 12.3203 11.5667L9.50118 10.5405C9.71353 9.95665 10.2511 9.58454 10.8349 9.55469ZM16.5163 11.623C16.7109 11.6131 16.9106 11.6408 17.1052 11.7117C17.8837 11.9952 18.2859 12.8558 18.0024 13.6343L15.1826 12.6082C15.3952 12.0243 15.9325 11.6529 16.5163 11.623ZM10.6276 14.1228L14.8559 15.6624C14.431 16.8301 13.1401 17.432 11.9724 17.0071C10.8046 16.5822 10.2028 15.2906 10.6276 14.1228Z" fill="#1C1D20"/>
</svg>
