<svg width="24" height="24" viewBox="0 0 24 24" fill="none" xmlns="http://www.w3.org/2000/svg">
<path d="M18 3.75C18.8284 3.75 19.5 4.42162 19.5 5.25V18.75C19.5 19.5784 18.8284 20.25 18 20.25H6C5.17162 20.25 4.5 19.5784 4.5 18.75V5.25C4.5 4.42162 5.17162 3.75 6 3.75H18ZM11.25 5.625V6.375C11.25 6.582 11.418 6.75 11.625 6.75H12.375C12.582 6.75 12.75 6.582 12.75 6.375V5.625C12.75 5.418 12.582 5.25 12.375 5.25H11.625C11.418 5.25 11.25 5.418 11.25 5.625ZM7.5 18.375V17.625C7.5 17.418 7.332 17.25 7.125 17.25H6.375C6.168 17.25 6 17.418 6 17.625V18.375C6 18.582 6.168 18.75 6.375 18.75H7.125C7.332 18.75 7.5 18.582 7.5 18.375ZM7.5 6.375V5.625C7.5 5.418 7.332 5.25 7.125 5.25H6.375C6.168 5.25 6 5.418 6 5.625V6.375C6 6.582 6.168 6.75 6.375 6.75H7.125C7.332 6.75 7.5 6.582 7.5 6.375ZM10.125 18.375V17.625C10.125 17.418 9.957 17.25 9.75 17.25H9C8.793 17.25 8.625 17.418 8.625 17.625V18.375C8.625 18.582 8.793 18.75 9 18.75H9.75C9.957 18.75 10.125 18.582 10.125 18.375ZM10.125 6.375V5.625C10.125 5.418 9.957 5.25 9.75 5.25H9C8.793 5.25 8.625 5.418 8.625 5.625V6.375C8.625 6.582 8.793 6.75 9 6.75H9.75C9.957 6.75 10.125 6.582 10.125 6.375ZM10.5716 14.0093C10.5716 14.3588 10.9688 14.5605 11.2511 14.3542L14.0029 12.345C14.2365 12.1744 14.2365 11.8256 14.0029 11.6546L11.2511 9.64538C10.9688 9.43913 10.5716 9.64088 10.5716 9.99038V14.0093ZM12.75 18.375V17.625C12.75 17.418 12.582 17.25 12.375 17.25H11.625C11.418 17.25 11.25 17.418 11.25 17.625V18.375C11.25 18.582 11.418 18.75 11.625 18.75H12.375C12.582 18.75 12.75 18.582 12.75 18.375ZM15.375 18.375V17.625C15.375 17.418 15.207 17.25 15 17.25H14.25C14.043 17.25 13.875 17.418 13.875 17.625V18.375C13.875 18.582 14.043 18.75 14.25 18.75H15C15.207 18.75 15.375 18.582 15.375 18.375ZM15.375 6.375V5.625C15.375 5.418 15.207 5.25 15 5.25H14.25C14.043 5.25 13.875 5.418 13.875 5.625V6.375C13.875 6.582 14.043 6.75 14.25 6.75H15C15.207 6.75 15.375 6.582 15.375 6.375ZM18 18.375V17.625C18 17.418 17.832 17.25 17.625 17.25H16.875C16.668 17.25 16.5 17.418 16.5 17.625V18.375C16.5 18.582 16.668 18.75 16.875 18.75H17.625C17.832 18.75 18 18.582 18 18.375ZM18 6.375V5.625C18 5.418 17.832 5.25 17.625 5.25H16.875C16.668 5.25 16.5 5.418 16.5 5.625V6.375C16.5 6.582 16.668 6.75 16.875 6.75H17.625C17.832 6.75 18 6.582 18 6.375Z" fill="#1C1D20"/>
</svg>
