<svg width="267" height="201" viewBox="0 0 267 201" fill="none" xmlns="http://www.w3.org/2000/svg">
<g opacity="0.4">
<g filter="url(#filter0_b_2453_14751)">
<circle cx="36.7684" cy="36.7684" r="36.7684" transform="matrix(-0.0815385 0.99667 0.99667 0.0815385 197.495 120.838)" fill="#00BAA6" fill-opacity="0.1"/>
<circle cx="36.7684" cy="36.7684" r="36.4184" transform="matrix(-0.0815385 0.99667 0.99667 0.0815385 197.495 120.838)" stroke="#54DDCE" stroke-width="0.7"/>
</g>
<g filter="url(#filter1_b_2453_14751)">
<circle cx="45.7094" cy="45.7094" r="45.7094" transform="matrix(-0.0815385 0.99667 0.99667 0.0815385 160.906 97.8252)" fill="#00BAA6" fill-opacity="0.2"/>
<circle cx="45.7094" cy="45.7094" r="45.3594" transform="matrix(-0.0815385 0.99667 0.99667 0.0815385 160.906 97.8252)" stroke="#54DDCE" stroke-width="0.7"/>
</g>
<g filter="url(#filter2_b_2453_14751)">
<circle cx="60.6949" cy="60.6949" r="60.6949" transform="matrix(-0.0815385 0.99667 0.99667 0.0815385 98.5144 57.5859)" fill="#00BAA6" fill-opacity="0.3"/>
<circle cx="60.6949" cy="60.6949" r="60.3449" transform="matrix(-0.0815385 0.99667 0.99667 0.0815385 98.5144 57.5859)" stroke="#33D6C5" stroke-width="0.7"/>
</g>
<g filter="url(#filter3_b_2453_14751)">
<circle cx="87.9304" cy="87.9304" r="87.9304" transform="matrix(-0.0815385 0.99667 0.99667 0.0815385 15.2832 0.742188)" fill="#00BAA6" fill-opacity="0.5"/>
<circle cx="87.9304" cy="87.9304" r="87.5804" transform="matrix(-0.0815385 0.99667 0.99667 0.0815385 15.2832 0.742188)" stroke="#00CCB6" stroke-width="0.7"/>
</g>
</g>
<defs>
<filter id="filter0_b_2453_14751" x="190.373" y="119.712" width="81.5408" height="81.54" filterUnits="userSpaceOnUse" color-interpolation-filters="sRGB">
<feFlood flood-opacity="0" result="BackgroundImageFix"/>
<feGaussianBlur in="BackgroundImageFix" stdDeviation="2"/>
<feComposite in2="SourceAlpha" operator="in" result="effect1_backgroundBlur_2453_14751"/>
<feBlend mode="normal" in="SourceGraphic" in2="effect1_backgroundBlur_2453_14751" result="shape"/>
</filter>
<filter id="filter1_b_2453_14751" x="149.024" y="93.3975" width="107.424" height="107.424" filterUnits="userSpaceOnUse" color-interpolation-filters="sRGB">
<feFlood flood-opacity="0" result="BackgroundImageFix"/>
<feGaussianBlur in="BackgroundImageFix" stdDeviation="4"/>
<feComposite in2="SourceAlpha" operator="in" result="effect1_backgroundBlur_2453_14751"/>
<feBlend mode="normal" in="SourceGraphic" in2="effect1_backgroundBlur_2453_14751" result="shape"/>
</filter>
<filter id="filter2_b_2453_14751" x="85.3601" y="54.3291" width="137.396" height="137.396" filterUnits="userSpaceOnUse" color-interpolation-filters="sRGB">
<feFlood flood-opacity="0" result="BackgroundImageFix"/>
<feGaussianBlur in="BackgroundImageFix" stdDeviation="4"/>
<feComposite in2="SourceAlpha" operator="in" result="effect1_backgroundBlur_2453_14751"/>
<feBlend mode="normal" in="SourceGraphic" in2="effect1_backgroundBlur_2453_14751" result="shape"/>
</filter>
<filter id="filter3_b_2453_14751" x="-2.88408" y="-3.08574" width="197.27" height="197.27" filterUnits="userSpaceOnUse" color-interpolation-filters="sRGB">
<feFlood flood-opacity="0" result="BackgroundImageFix"/>
<feGaussianBlur in="BackgroundImageFix" stdDeviation="5.35"/>
<feComposite in2="SourceAlpha" operator="in" result="effect1_backgroundBlur_2453_14751"/>
<feBlend mode="normal" in="SourceGraphic" in2="effect1_backgroundBlur_2453_14751" result="shape"/>
</filter>
</defs>
</svg>
