<svg width="294" height="284" viewBox="0 0 294 284" fill="none" xmlns="http://www.w3.org/2000/svg">
<g opacity="0.4">
<g filter="url(#filter0_b_2618_4033)">
<rect width="80" height="80" rx="4" transform="matrix(-0.999965 0.00834902 0.00834902 0.999965 243.127 78.959)" fill="#00BAA6" fill-opacity="0.1"/>
<rect x="-0.347066" y="0.35291" width="79.3" height="79.3" rx="3.65" transform="matrix(-0.999965 0.00834902 0.00834902 0.999965 242.43 78.9619)" stroke="#54DDCE" stroke-width="0.7"/>
</g>
<g filter="url(#filter1_b_2618_4033)">
<rect width="99.279" height="99.279" rx="4" transform="matrix(-0.999965 0.00834899 0.00834899 0.999965 224.279 97.1172)" fill="#00BAA6" fill-opacity="0.2"/>
<rect x="-0.347066" y="0.35291" width="98.579" height="98.579" rx="3.65" transform="matrix(-0.999965 0.00834899 0.00834899 0.999965 223.582 97.1201)" stroke="#54DDCE" stroke-width="0.7"/>
</g>
<g filter="url(#filter2_b_2618_4033)">
<rect width="111" height="111" rx="4" transform="matrix(-0.999965 0.00834902 0.00834902 0.999965 203.037 68.2939)" fill="#00BAA6" fill-opacity="0.3"/>
<rect x="-0.347066" y="0.35291" width="110.3" height="110.3" rx="3.65" transform="matrix(-0.999965 0.00834902 0.00834902 0.999965 202.34 68.2969)" stroke="#33D6C5" stroke-width="0.7"/>
</g>
<g filter="url(#filter3_b_2618_4033)">
<rect width="121.272" height="121.272" rx="4" transform="matrix(-0.999965 0.00834899 0.00834899 0.999965 179.068 94.2754)" fill="#00BAA6" fill-opacity="0.5"/>
<rect x="-0.347066" y="0.35291" width="120.572" height="120.572" rx="3.65" transform="matrix(-0.999965 0.00834899 0.00834899 0.999965 178.371 94.2783)" stroke="#00CCB6" stroke-width="0.7"/>
</g>
</g>
<defs>
<filter id="filter0_b_2618_4033" x="159.164" y="74.9922" width="88.5986" height="88.5986" filterUnits="userSpaceOnUse" color-interpolation-filters="sRGB">
<feFlood flood-opacity="0" result="BackgroundImageFix"/>
<feGaussianBlur in="BackgroundImageFix" stdDeviation="2"/>
<feComposite in2="SourceAlpha" operator="in" result="effect1_backgroundBlur_2618_4033"/>
<feBlend mode="normal" in="SourceGraphic" in2="effect1_backgroundBlur_2618_4033" result="shape"/>
</filter>
<filter id="filter1_b_2618_4033" x="117.037" y="89.1504" width="116.038" height="116.038" filterUnits="userSpaceOnUse" color-interpolation-filters="sRGB">
<feFlood flood-opacity="0" result="BackgroundImageFix"/>
<feGaussianBlur in="BackgroundImageFix" stdDeviation="4"/>
<feComposite in2="SourceAlpha" operator="in" result="effect1_backgroundBlur_2618_4033"/>
<feBlend mode="normal" in="SourceGraphic" in2="effect1_backgroundBlur_2618_4033" result="shape"/>
</filter>
<filter id="filter2_b_2618_4033" x="84.0742" y="60.3271" width="127.856" height="127.856" filterUnits="userSpaceOnUse" color-interpolation-filters="sRGB">
<feFlood flood-opacity="0" result="BackgroundImageFix"/>
<feGaussianBlur in="BackgroundImageFix" stdDeviation="4"/>
<feComposite in2="SourceAlpha" operator="in" result="effect1_backgroundBlur_2618_4033"/>
<feBlend mode="normal" in="SourceGraphic" in2="effect1_backgroundBlur_2618_4033" result="shape"/>
</filter>
<filter id="filter3_b_2618_4033" x="47.1335" y="83.6086" width="143.614" height="143.614" filterUnits="userSpaceOnUse" color-interpolation-filters="sRGB">
<feFlood flood-opacity="0" result="BackgroundImageFix"/>
<feGaussianBlur in="BackgroundImageFix" stdDeviation="5.35"/>
<feComposite in2="SourceAlpha" operator="in" result="effect1_backgroundBlur_2618_4033"/>
<feBlend mode="normal" in="SourceGraphic" in2="effect1_backgroundBlur_2618_4033" result="shape"/>
</filter>
</defs>
</svg>
