<svg width="24" height="24" viewBox="0 0 24 24" fill="none" xmlns="http://www.w3.org/2000/svg">
<path d="M4.125 4.5C3.29662 4.5 2.625 5.17162 2.625 6V18C2.625 18.8284 3.29662 19.5 4.125 19.5H14.269C14.2593 19.3759 14.25 19.2517 14.25 19.125C14.25 18.7373 14.3004 18.3619 14.3862 18C14.8389 16.0942 16.4106 14.6223 18.3677 14.3152L16.5842 12.6753C15.8654 12.0145 14.7605 12.016 14.0435 12.6782L10.9072 15.5742L9.1897 14.105C8.48582 13.5035 7.44869 13.5056 6.74707 14.1101L4.125 16.3689V6.375C4.125 6.168 4.293 6 4.5 6H19.5C19.707 6 19.875 6.168 19.875 6.375V14.3137C20.4083 14.3966 20.9134 14.5629 21.375 14.8044V6C21.375 5.17162 20.7034 4.5 19.875 4.5H4.125ZM8.625 7.5C7.79663 7.5 7.125 8.17162 7.125 9C7.125 9.82837 7.79663 10.5 8.625 10.5C9.45337 10.5 10.125 9.82837 10.125 9C10.125 8.17162 9.45337 7.5 8.625 7.5ZM19.125 15.375C17.0539 15.375 15.375 17.0539 15.375 19.125C15.375 21.1961 17.0539 22.875 19.125 22.875C21.1961 22.875 22.875 21.1961 22.875 19.125C22.875 17.0539 21.1961 15.375 19.125 15.375ZM19.125 16.875C19.3324 16.875 19.5 17.043 19.5 17.25V18.75H21C21.2074 18.75 21.375 18.918 21.375 19.125C21.375 19.332 21.2074 19.5 21 19.5H19.5V21C19.5 21.207 19.3324 21.375 19.125 21.375C18.9176 21.375 18.75 21.207 18.75 21V19.5H17.25C17.0426 19.5 16.875 19.332 16.875 19.125C16.875 18.918 17.0426 18.75 17.25 18.75H18.75V17.25C18.75 17.043 18.9176 16.875 19.125 16.875Z" fill="#1C1D20"/>
</svg>
