<svg width="24" height="24" viewBox="0 0 24 24" fill="none" xmlns="http://www.w3.org/2000/svg">
<path d="M12 3.75C8.89837 3.75 6.37499 6.27338 6.37499 9.375C6.37499 11.3726 7.71151 13.444 9.02343 15.0007H6.40502C5.85565 15.0007 5.33829 15.2933 5.05517 15.7646L4.02026 17.4895C3.67751 18.0599 3.66907 18.7467 3.99682 19.3257C4.32494 19.9043 4.91799 20.25 5.58324 20.25H18.4167C19.0824 20.25 19.675 19.9043 20.0032 19.3257C20.3309 18.7467 20.3221 18.0603 19.9797 17.4895L18.9455 15.7639C18.6624 15.2929 18.1451 15 17.5957 15H16.4788L15.0703 16.5H17.5957C17.6216 16.5 17.6463 16.5138 17.6594 16.5359L18.6943 18.2607C18.7787 18.4014 18.7325 18.5248 18.698 18.5859C18.6631 18.6474 18.5806 18.75 18.4167 18.75H5.58324C5.41937 18.75 5.33687 18.6474 5.30199 18.5867C5.26749 18.5255 5.22128 18.4021 5.30566 18.2615L6.34057 16.5366C6.35369 16.5141 6.37841 16.5007 6.40429 16.5007H10.4202C11.013 17.0821 11.4625 17.4684 11.5217 17.5173C11.6605 17.6321 11.8305 17.6895 12 17.6895C12.1695 17.6895 12.3395 17.6321 12.4783 17.5173C12.6886 17.3437 17.625 13.2139 17.625 9.375C17.625 6.27338 15.1016 3.75 12 3.75ZM12 8.25C12.6214 8.25 13.125 8.75362 13.125 9.375C13.125 9.99638 12.6214 10.5 12 10.5C11.3786 10.5 10.875 9.99638 10.875 9.375C10.875 8.75362 11.3786 8.25 12 8.25Z" fill="#1C1D20"/>
</svg>
