<svg width="24" height="24" viewBox="0 0 24 24" fill="none" xmlns="http://www.w3.org/2000/svg">
<path d="M9.4875 21.0026C8.20913 21.0026 6.93075 20.5162 5.95725 19.5427C4.98413 18.5692 4.49738 17.2909 4.49738 16.0121C4.49738 14.7338 4.98413 13.455 5.95725 12.4819L13.6073 4.83187C14.2999 4.13925 15.2205 3.75787 16.2 3.75787C17.1791 3.75787 18.1001 4.13925 18.7927 4.83187C20.2222 6.26175 20.2222 8.58787 18.7927 10.0177L11.1428 17.6677C10.2285 18.5824 8.74838 18.5831 7.83225 17.6677C6.9195 16.7546 6.9195 15.2696 7.83225 14.3569L12.9697 9.21937C13.2626 8.9265 13.7374 8.9265 14.0303 9.21937C14.3231 9.51225 14.3231 9.987 14.0303 10.2799L8.89275 15.4174C8.565 15.7455 8.565 16.2787 8.89313 16.6069C9.21075 16.9241 9.76463 16.9241 10.0823 16.6069L17.7323 8.95687C18.5767 8.112 18.5767 6.73725 17.7323 5.89237C17.3228 5.48325 16.7786 5.25787 16.2 5.25787C15.621 5.25787 15.0772 5.48325 14.6677 5.89237L7.01775 13.5424C6.33713 14.2234 5.99663 15.1178 5.99663 16.0121C5.99663 16.9065 6.33713 17.8009 7.01775 18.4819C7.69875 19.1625 8.59313 19.503 9.4875 19.503C10.3819 19.503 11.2766 19.1629 11.9573 18.4819L16.7197 13.7194C17.0126 13.4265 17.4874 13.4265 17.7803 13.7194C18.0731 14.0122 18.0731 14.487 17.7803 14.7799L13.0178 19.5424C12.0446 20.5159 10.7663 21.0026 9.4875 21.0026Z" fill="#1C1D20"/>
</svg>
