<svg width="24" height="24" viewBox="0 0 24 24" fill="none" xmlns="http://www.w3.org/2000/svg">
<path d="M8.25 4.5C8.18062 4.5 7.5 5.21062 7.5 5.625C7.5 6.03938 7.83563 6.375 8.25 6.375C8.66437 6.375 9 6.03938 9 5.625C9 5.21062 8.32987 4.5 8.25 4.5ZM8.25 6.375C7.836 6.375 7.5 6.711 7.5 7.125V9H9V7.125C9 6.711 8.664 6.375 8.25 6.375ZM12 4.5C11.9306 4.5 11.25 5.21062 11.25 5.625C11.25 6.03938 11.5856 6.375 12 6.375C12.4144 6.375 12.75 6.03938 12.75 5.625C12.75 5.21062 12.0799 4.5 12 4.5ZM12 6.375C11.586 6.375 11.25 6.711 11.25 7.125V9H12.75V7.125C12.75 6.711 12.414 6.375 12 6.375ZM15.75 4.5C15.6806 4.5 15 5.21062 15 5.625C15 6.03938 15.3356 6.375 15.75 6.375C16.1644 6.375 16.5 6.03938 16.5 5.625C16.5 5.21062 15.8299 4.5 15.75 4.5ZM15.75 6.375C15.336 6.375 15 6.711 15 7.125V9H16.5V7.125C16.5 6.711 16.164 6.375 15.75 6.375ZM6.47095 9.75C5.27882 9.75 4.3125 10.7163 4.3125 11.9084C4.3125 13.0964 5.25 14.25 6.5625 14.25C7.3125 14.25 7.94963 13.9231 8.39062 13.3081C8.799 13.8774 9.46462 14.25 10.2188 14.25C10.9447 14.25 11.5886 13.9047 12 13.3711C12.4114 13.9047 13.0553 14.25 13.7812 14.25C14.5354 14.25 15.201 13.8774 15.6094 13.3081C16.0504 13.9231 16.6875 14.25 17.4375 14.25C18.75 14.25 19.6875 13.0968 19.6875 11.9084C19.6875 10.7163 18.7212 9.75 17.5291 9.75H6.47095ZM8.39941 14.8403C7.86654 15.1898 7.24088 15.375 6.5625 15.375C5.9475 15.375 5.37225 15.2021 4.875 14.9055V17.9919H3.75C3.336 17.9919 3 18.3279 3 18.7419C3 19.1559 3.336 19.4919 3.75 19.4919H20.25C20.664 19.4919 21 19.1559 21 18.7419C21 18.3279 20.664 17.9919 20.25 17.9919H19.125V14.9055C18.6278 15.2021 18.0525 15.375 17.4375 15.375C16.7591 15.375 16.1335 15.1898 15.6006 14.8403C15.0636 15.1842 14.4326 15.375 13.7812 15.375C13.1392 15.375 12.5265 15.1967 12 14.8674C11.4735 15.1967 10.8608 15.375 10.2188 15.375C9.56738 15.375 8.93641 15.1842 8.39941 14.8403Z" fill="#1C1D20"/>
</svg>
