<svg width="24" height="24" viewBox="0 0 24 24" fill="none" xmlns="http://www.w3.org/2000/svg">
<path d="M10.875 2.625C9.63225 2.625 8.625 3.63225 8.625 4.875H5.625C4.38225 4.875 3.375 5.88225 3.375 7.125V16.875C3.375 18.1178 4.38225 19.125 5.625 19.125H18.375C19.6178 19.125 20.625 18.1178 20.625 16.875V7.125C20.625 5.88225 19.6178 4.875 18.375 4.875H15.375C15.375 3.63225 14.3678 2.625 13.125 2.625H10.875ZM10.875 4.125H13.125C13.539 4.125 13.875 4.46062 13.875 4.875H10.125C10.125 4.46062 10.461 4.125 10.875 4.125ZM5.625 6.375H18.375C18.7894 6.375 19.125 6.71063 19.125 7.125V12.498C17.9476 12.6995 15.1039 13.125 12 13.125C8.89714 13.125 6.05328 12.6998 4.875 12.498V7.125C4.875 6.71063 5.21062 6.375 5.625 6.375ZM7.875 9.75C7.461 9.75 7.125 10.0856 7.125 10.5V10.875C7.125 11.2894 7.461 11.625 7.875 11.625C8.289 11.625 8.625 11.2894 8.625 10.875V10.5C8.625 10.0856 8.289 9.75 7.875 9.75ZM16.125 9.75C15.711 9.75 15.375 10.0856 15.375 10.5V10.875C15.375 11.2894 15.711 11.625 16.125 11.625C16.539 11.625 16.875 11.2894 16.875 10.875V10.5C16.875 10.0856 16.539 9.75 16.125 9.75ZM4.875 14.0193C6.23338 14.2436 8.97683 14.625 12 14.625C15.0236 14.625 17.7669 14.2435 19.125 14.0193V16.875C19.125 17.2894 18.7894 17.625 18.375 17.625H5.625C5.21062 17.625 4.875 17.2894 4.875 16.875V14.0193Z" fill="#1C1D20"/>
</svg>
