<svg width="24" height="24" viewBox="0 0 24 24" fill="none" xmlns="http://www.w3.org/2000/svg">
<path d="M17.625 8.625C18.8678 8.625 19.875 9.63225 19.875 10.875V17.25C19.875 18.4909 18.8659 19.5 17.625 19.5H6.375C5.13412 19.5 4.125 18.4909 4.125 17.25V10.875C4.125 9.63225 5.13225 8.625 6.375 8.625H17.625ZM8.25 16.875V16.125C8.25 15.918 8.082 15.75 7.875 15.75H7.125C6.918 15.75 6.75 15.918 6.75 16.125V16.875C6.75 17.082 6.918 17.25 7.125 17.25H7.875C8.082 17.25 8.25 17.082 8.25 16.875ZM8.25 14.25V13.5C8.25 13.293 8.082 13.125 7.875 13.125H7.125C6.918 13.125 6.75 13.293 6.75 13.5V14.25C6.75 14.457 6.918 14.625 7.125 14.625H7.875C8.082 14.625 8.25 14.457 8.25 14.25ZM11.25 16.875V16.125C11.25 15.918 11.082 15.75 10.875 15.75H10.125C9.918 15.75 9.75 15.918 9.75 16.125V16.875C9.75 17.082 9.918 17.25 10.125 17.25H10.875C11.082 17.25 11.25 17.082 11.25 16.875ZM11.25 14.25V13.5C11.25 13.293 11.082 13.125 10.875 13.125H10.125C9.918 13.125 9.75 13.293 9.75 13.5V14.25C9.75 14.457 9.918 14.625 10.125 14.625H10.875C11.082 14.625 11.25 14.457 11.25 14.25ZM11.25 11.625V10.875C11.25 10.668 11.082 10.5 10.875 10.5H10.125C9.918 10.5 9.75 10.668 9.75 10.875V11.625C9.75 11.832 9.918 12 10.125 12H10.875C11.082 12 11.25 11.832 11.25 11.625ZM14.25 16.875V16.125C14.25 15.918 14.082 15.75 13.875 15.75H13.125C12.918 15.75 12.75 15.918 12.75 16.125V16.875C12.75 17.082 12.918 17.25 13.125 17.25H13.875C14.082 17.25 14.25 17.082 14.25 16.875ZM14.25 14.25V13.5C14.25 13.293 14.082 13.125 13.875 13.125H13.125C12.918 13.125 12.75 13.293 12.75 13.5V14.25C12.75 14.457 12.918 14.625 13.125 14.625H13.875C14.082 14.625 14.25 14.457 14.25 14.25ZM14.25 11.625V10.875C14.25 10.668 14.082 10.5 13.875 10.5H13.125C12.918 10.5 12.75 10.668 12.75 10.875V11.625C12.75 11.832 12.918 12 13.125 12H13.875C14.082 12 14.25 11.832 14.25 11.625ZM17.25 14.25V13.5C17.25 13.293 17.082 13.125 16.875 13.125H16.125C15.918 13.125 15.75 13.293 15.75 13.5V14.25C15.75 14.457 15.918 14.625 16.125 14.625H16.875C17.082 14.625 17.25 14.457 17.25 14.25ZM17.25 11.625V10.875C17.25 10.668 17.082 10.5 16.875 10.5H16.125C15.918 10.5 15.75 10.668 15.75 10.875V11.625C15.75 11.832 15.918 12 16.125 12H16.875C17.082 12 17.25 11.832 17.25 11.625ZM6.375 7.5C5.5095 7.5 4.72238 7.8285 4.125 8.36438V6.75C4.125 5.50912 5.13412 4.5 6.375 4.5H17.625C18.8659 4.5 19.875 5.50912 19.875 6.75V8.36438C19.2776 7.8285 18.4905 7.5 17.625 7.5H6.375Z" fill="#1C1D20"/>
</svg>
