<svg width="24" height="24" viewBox="0 0 24 24" fill="none" xmlns="http://www.w3.org/2000/svg">
<path d="M6.375 4.5C5.13412 4.5 4.125 5.50912 4.125 6.75V17.25C4.125 18.4909 5.13412 19.5 6.375 19.5H14.3137C14.2758 19.2548 14.25 19.0057 14.25 18.75C14.25 18.4943 14.2758 18.2452 14.3137 18H6.375C5.96137 18 5.625 17.6636 5.625 17.25V9.375C5.625 8.96137 5.96137 8.625 6.375 8.625H17.625C18.0386 8.625 18.375 8.96137 18.375 9.375V13.9387C18.6202 13.9008 18.8693 13.875 19.125 13.875C19.3807 13.875 19.6298 13.9008 19.875 13.9387V6.75C19.875 5.50912 18.8659 4.5 17.625 4.5H6.375ZM10.125 9.75C9.918 9.75 9.75 9.918 9.75 10.125V10.875C9.75 11.082 9.918 11.25 10.125 11.25H10.875C11.082 11.25 11.25 11.082 11.25 10.875V10.125C11.25 9.918 11.082 9.75 10.875 9.75H10.125ZM13.125 9.75C12.918 9.75 12.75 9.918 12.75 10.125V10.875C12.75 11.082 12.918 11.25 13.125 11.25H13.875C14.082 11.25 14.25 11.082 14.25 10.875V10.125C14.25 9.918 14.082 9.75 13.875 9.75H13.125ZM16.125 9.75C15.918 9.75 15.75 9.918 15.75 10.125V10.875C15.75 11.082 15.918 11.25 16.125 11.25H16.875C17.082 11.25 17.25 11.082 17.25 10.875V10.125C17.25 9.918 17.082 9.75 16.875 9.75H16.125ZM7.125 12.375C6.918 12.375 6.75 12.543 6.75 12.75V13.5C6.75 13.707 6.918 13.875 7.125 13.875H7.875C8.082 13.875 8.25 13.707 8.25 13.5V12.75C8.25 12.543 8.082 12.375 7.875 12.375H7.125ZM10.125 12.375C9.918 12.375 9.75 12.543 9.75 12.75V13.5C9.75 13.707 9.918 13.875 10.125 13.875H10.875C11.082 13.875 11.25 13.707 11.25 13.5V12.75C11.25 12.543 11.082 12.375 10.875 12.375H10.125ZM13.125 12.375C12.918 12.375 12.75 12.543 12.75 12.75V13.5C12.75 13.707 12.918 13.875 13.125 13.875H13.875C14.082 13.875 14.25 13.707 14.25 13.5V12.75C14.25 12.543 14.082 12.375 13.875 12.375H13.125ZM16.125 12.375C15.918 12.375 15.75 12.543 15.75 12.75V13.5C15.75 13.707 15.918 13.875 16.125 13.875H16.875C17.082 13.875 17.25 13.707 17.25 13.5V12.75C17.25 12.543 17.082 12.375 16.875 12.375H16.125ZM7.125 15C6.918 15 6.75 15.168 6.75 15.375V16.125C6.75 16.332 6.918 16.5 7.125 16.5H7.875C8.082 16.5 8.25 16.332 8.25 16.125V15.375C8.25 15.168 8.082 15 7.875 15H7.125ZM10.125 15C9.918 15 9.75 15.168 9.75 15.375V16.125C9.75 16.332 9.918 16.5 10.125 16.5H10.875C11.082 16.5 11.25 16.332 11.25 16.125V15.375C11.25 15.168 11.082 15 10.875 15H10.125ZM13.125 15C12.918 15 12.75 15.168 12.75 15.375V16.125C12.75 16.332 12.918 16.5 13.125 16.5H13.875C14.082 16.5 14.25 16.332 14.25 16.125V15.375C14.25 15.168 14.082 15 13.875 15H13.125ZM19.125 15C17.0539 15 15.375 16.6789 15.375 18.75C15.375 20.8211 17.0539 22.5 19.125 22.5C21.1961 22.5 22.875 20.8211 22.875 18.75C22.875 16.6789 21.1961 15 19.125 15ZM19.125 16.5C19.3324 16.5 19.5 16.668 19.5 16.875V18.375H21C21.2074 18.375 21.375 18.543 21.375 18.75C21.375 18.957 21.2074 19.125 21 19.125H19.5V20.625C19.5 20.832 19.3324 21 19.125 21C18.9176 21 18.75 20.832 18.75 20.625V19.125H17.25C17.0426 19.125 16.875 18.957 16.875 18.75C16.875 18.543 17.0426 18.375 17.25 18.375H18.75V16.875C18.75 16.668 18.9176 16.5 19.125 16.5Z" fill="#1C1D20"/>
</svg>
