<svg width="24" height="24" viewBox="0 0 24 24" fill="none" xmlns="http://www.w3.org/2000/svg">
<path d="M10.6772 4.5C9.81962 4.5 9.04855 4.9764 8.66455 5.74365L8.36865 6.33545C8.24078 6.59082 7.9835 6.75 7.69775 6.75H6.375C4.72088 6.75 3.375 8.09588 3.375 9.75V16.125C3.375 17.7791 4.72088 19.125 6.375 19.125H17.625C19.2791 19.125 20.625 17.7791 20.625 16.125V9.75C20.625 8.09588 19.2791 6.75 17.625 6.75H16.3022C16.0165 6.75 15.7588 6.5912 15.6313 6.33545L15.3354 5.74365C14.9518 4.97678 14.1811 4.5 13.3235 4.5H10.6772ZM10.6765 6H13.3228C13.6085 6 13.8658 6.1588 13.9937 6.41455L14.2896 7.00635C14.6732 7.77322 15.4446 8.25 16.3022 8.25H17.625C18.4523 8.25 19.125 8.92275 19.125 9.75V16.125C19.125 16.9523 18.4523 17.625 17.625 17.625H6.375C5.54775 17.625 4.875 16.9523 4.875 16.125V9.75C4.875 8.92275 5.54775 8.25 6.375 8.25H7.69775C8.55538 8.25 9.32682 7.7736 9.71045 7.00635L10.0063 6.41455C10.1342 6.15918 10.3908 6 10.6765 6ZM12 9C9.93225 9 8.25 10.6823 8.25 12.75C8.25 14.8177 9.93225 16.5 12 16.5C14.0677 16.5 15.75 14.8177 15.75 12.75C15.75 10.6823 14.0677 9 12 9ZM12 10.5C13.2409 10.5 14.25 11.5091 14.25 12.75C14.25 13.9909 13.2409 15 12 15C10.7591 15 9.75 13.9909 9.75 12.75C9.75 11.5091 10.7591 10.5 12 10.5Z" fill="#1C1D20"/>
</svg>
