<svg width="24" height="24" viewBox="0 0 24 24" fill="none" xmlns="http://www.w3.org/2000/svg">
<path d="M12.75 13.875H19.5V17.625C19.5 18.8659 18.4909 19.875 17.25 19.875H12.75V13.875ZM11.25 13.875V19.875H6.75C5.50912 19.875 4.5 18.8659 4.5 17.625V13.875H11.25ZM12.75 12.375V6.375H17.25C18.4909 6.375 19.5 7.38412 19.5 8.625V12.375H12.75ZM11.25 12.375H4.5V8.625C4.5 7.38412 5.50912 6.375 6.75 6.375H11.25V12.375ZM13.875 2.625C15.3221 2.625 16.5 3.8025 16.5 5.25C16.5 5.65313 16.4059 6.03338 16.2431 6.375H13.875C14.4952 6.375 15 5.87025 15 5.25C15 4.62975 14.4952 4.125 13.875 4.125C13.2548 4.125 12.75 4.62975 12.75 5.25V6.375H11.25V5.25C11.25 4.62975 10.7453 4.125 10.125 4.125C9.50475 4.125 9 4.62975 9 5.25C9 5.87025 9.50475 6.375 10.125 6.375H7.75687C7.59412 6.03338 7.5 5.65313 7.5 5.25C7.5 3.8025 8.67788 2.625 10.125 2.625C10.8593 2.625 11.523 2.92875 12 3.41663C12.477 2.92875 13.1407 2.625 13.875 2.625Z" fill="#1C1D20"/>
</svg>
