<svg width="24" height="24" viewBox="0 0 24 24" fill="none" xmlns="http://www.w3.org/2000/svg">
<path d="M3.375 9.75H20.625V16.5C20.625 17.7409 19.6159 18.75 18.375 18.75H5.625C4.38412 18.75 3.375 17.7409 3.375 16.5V9.75ZM20.625 7.5V8.625H18.1875L19.0312 6.9375L18.1875 5.25H18.375C19.6162 5.25 20.625 6.25875 20.625 7.5ZM16.9313 5.25L17.775 6.9375L16.9313 8.625H15.1875L16.0312 6.9375L15.1875 5.25H16.9313ZM13.9313 5.25L14.775 6.9375L13.9313 8.625H12.1875L13.0312 6.9375L12.1875 5.25H13.9313ZM10.9312 5.25L11.775 6.9375L10.9312 8.625H9.1875L10.0312 6.9375L9.1875 5.25H10.9312ZM7.93125 5.25L8.775 6.9375L7.93125 8.625H3.375V7.5C3.375 6.25875 4.38375 5.25 5.625 5.25H7.93125Z" fill="#1C1D20"/>
</svg>
