<svg width="24" height="24" viewBox="0 0 24 24" fill="none" xmlns="http://www.w3.org/2000/svg">
<path d="M6.7478 3.75C5.71055 3.75 4.8728 4.59075 4.8728 5.625C4.8728 6.65925 5.71055 7.5 6.7478 7.5C7.78505 7.5 8.6228 6.65925 8.6228 5.625C8.6228 4.59075 7.78505 3.75 6.7478 3.75ZM9.52881 4.5C9.67131 4.84875 9.75 5.2275 9.75 5.625C9.75 6.36 9.48352 7.03515 9.04102 7.5564C9.13289 7.61527 9.19083 7.65171 9.26733 7.71021C9.46496 7.86133 11.1672 9.38232 11.1672 9.38232L13.0349 8.44849C13.2937 8.31724 13.5826 8.25 13.8713 8.25C14.5876 8.25 15.229 8.64741 15.5515 9.28491C16.0128 10.2112 15.6377 11.3403 14.7114 11.8015L11.7114 13.3015C11.6987 13.3079 11.4853 13.4252 11.1665 13.4766C10.9756 13.5073 10.7464 13.5145 10.5 13.459C10.5 14.0241 10.5181 14.3344 10.4626 14.625C10.4394 14.7476 10.4028 14.8669 10.3462 15H18.375C19.41 15 20.25 14.16 20.25 13.125V6.375C20.25 5.34 19.41 4.5 18.375 4.5H9.52881ZM6 8.25C4.96463 8.25 4.125 9.08962 4.125 10.125V14.25C4.125 14.6644 4.461 15 4.875 15H8.625C9.039 15 9.375 14.6644 9.375 14.25V11.5613C9.8955 11.8973 10.3269 12.1755 10.3674 12.2014C10.4747 12.2697 10.6932 12.375 10.8728 12.375C10.9872 12.375 11.1018 12.3491 11.2083 12.2959L14.2083 10.7959C14.5791 10.6103 14.729 10.1601 14.5437 9.78955C14.3585 9.4198 13.9093 9.26848 13.5381 9.4541L10.9922 10.7271L8.67554 8.67554C8.35304 8.41379 7.94775 8.25 7.5 8.25H6ZM6.7478 16.5C5.71055 16.5 4.8728 17.3407 4.8728 18.375C4.8728 19.4093 5.71055 20.25 6.7478 20.25C7.78505 20.25 8.6228 19.4093 8.6228 18.375C8.6228 17.3407 7.78505 16.5 6.7478 16.5ZM11.9978 16.5C10.9606 16.5 10.1228 17.3407 10.1228 18.375C10.1228 19.4093 10.9606 20.25 11.9978 20.25C13.0351 20.25 13.8728 19.4093 13.8728 18.375C13.8728 17.3407 13.0351 16.5 11.9978 16.5ZM17.2478 16.5C16.2106 16.5 15.3728 17.3407 15.3728 18.375C15.3728 19.4093 16.2106 20.25 17.2478 20.25C18.2851 20.25 19.1228 19.4093 19.1228 18.375C19.1228 17.3407 18.2851 16.5 17.2478 16.5Z" fill="#1C1D20"/>
</svg>
