<svg width="24" height="24" viewBox="0 0 24 24" fill="none" xmlns="http://www.w3.org/2000/svg">
<path d="M12 3.75C16.5562 3.75 20.25 7.44375 20.25 12C20.25 16.5562 16.5562 20.25 12 20.25C7.44375 20.25 3.75 16.5562 3.75 12C3.75 7.44375 7.44375 3.75 12 3.75ZM12.75 12C12.75 11.8628 12.75 6.88725 12.75 6.75C12.75 6.33562 12.414 6 12 6C11.586 6 11.25 6.33562 11.25 6.75C11.25 6.85575 11.25 9.8235 11.25 11.25C10.2525 11.25 7.61325 11.25 7.5 11.25C7.08562 11.25 6.75 11.586 6.75 12C6.75 12.414 7.08562 12.75 7.5 12.75C7.63725 12.75 11.9347 12.75 12 12.75C12.414 12.75 12.75 12.4144 12.75 12Z" fill="#1C1D20"/>
</svg>
