<svg width="24" height="24" viewBox="0 0 24 24" fill="none" xmlns="http://www.w3.org/2000/svg">
<path d="M6 5.25C4.75725 5.25 3.75 6.25725 3.75 7.5V16.5C3.75 17.7428 4.75725 18.75 6 18.75H18C19.2428 18.75 20.25 17.7428 20.25 16.5V7.5C20.25 6.25725 19.2428 5.25 18 5.25H6ZM6 6.75H13.5V11.395L10.8567 9.46436C10.5526 9.24236 10.125 9.45919 10.125 9.83569V11.25H8.25C7.83563 11.25 7.5 11.586 7.5 12C7.5 12.414 7.83563 12.75 8.25 12.75H10.125V14.1643C10.125 14.5408 10.5526 14.7576 10.8567 14.5356L13.5 12.605V17.25H6C5.58562 17.25 5.25 16.9144 5.25 16.5V7.5C5.25 7.08562 5.58562 6.75 6 6.75Z" fill="#1C1D20"/>
</svg>
