<svg width="24" height="24" viewBox="0 0 24 24" fill="none" xmlns="http://www.w3.org/2000/svg">
<path d="M6.37499 5.625C6.18308 5.625 5.99115 5.69829 5.84472 5.84473C5.55184 6.1376 5.55184 6.6124 5.84472 6.90527L10.9394 12L5.84472 17.0947C5.55184 17.3876 5.55184 17.8624 5.84472 18.1553C5.99134 18.3019 6.18299 18.375 6.37499 18.375C6.56699 18.375 6.75864 18.3019 6.90526 18.1553L12 13.0605L17.0947 18.1553C17.2413 18.3019 17.433 18.375 17.625 18.375C17.817 18.375 18.0086 18.3019 18.1553 18.1553C18.4481 17.8624 18.4481 17.3876 18.1553 17.0947L13.0605 12L18.1553 6.90527C18.4481 6.6124 18.4481 6.1376 18.1553 5.84473C17.8624 5.55185 17.3876 5.55185 17.0947 5.84473L12 10.9395L6.90526 5.84473C6.75883 5.69829 6.5669 5.625 6.37499 5.625Z" fill="#1C1D20"/>
</svg>
