<svg width="24" height="24" viewBox="0 0 24 24" fill="none" xmlns="http://www.w3.org/2000/svg">
<path d="M11.0625 3.375C6.8235 3.375 3.375 6.8235 3.375 11.0625C3.375 15.3015 6.8235 18.75 11.0625 18.75C15.3015 18.75 18.75 15.3015 18.75 11.0625C18.75 6.8235 15.3015 3.375 11.0625 3.375ZM11.25 6.75C11.457 6.75 11.625 6.918 11.625 7.125V7.63696C13.2791 7.82371 13.5929 9.07108 13.5989 9.44458C13.6308 10.0157 12.463 10.1125 12.3801 9.44458C12.3565 9.31633 12.2153 8.84638 11.625 8.68213V10.418C11.7405 10.4423 11.8508 10.4678 11.9509 10.4963C12.3151 10.6006 13.6985 10.8371 13.6985 12.3296C13.6985 13.701 12.6038 14.2112 11.625 14.3342V15C11.625 15.207 11.457 15.375 11.25 15.375C11.043 15.375 10.875 15.207 10.875 15V14.3555C8.76862 14.2415 8.61401 12.7109 8.61401 12.4724C8.56826 11.8465 9.75345 11.7719 9.8562 12.4724C9.97508 13.0064 10.4123 13.2478 10.875 13.3206V11.4924C10.2664 11.3916 8.76636 11.1053 8.76636 9.57715C8.76636 8.32427 9.80062 7.72569 10.875 7.62744V7.125C10.875 6.918 11.043 6.75 11.25 6.75ZM10.875 8.64551C10.185 8.75913 10.0518 9.24919 10.0518 9.49219C10.0518 9.92306 10.4243 10.1231 10.875 10.251V8.64551ZM19.864 11.4976C19.6439 16.0189 16.0171 19.6446 11.4961 19.864C12.389 20.3538 13.3979 20.625 14.4573 20.625C17.8582 20.625 20.625 17.8585 20.625 14.4573C20.625 13.3994 20.3534 12.3908 19.864 11.4976ZM11.625 11.6631V13.3066C12.3757 13.1529 12.4175 12.6009 12.4175 12.4482C12.4175 12.0961 12.2366 11.8528 11.625 11.6631Z" fill="#1C1D20"/>
</svg>
