<svg width="24" height="24" viewBox="0 0 24 24" fill="none" xmlns="http://www.w3.org/2000/svg">
<path d="M18.022 4.12279C17.7628 4.11621 17.4964 4.20052 17.2683 4.39599L16.5 5.0537L9.4563 7.6809C9.17992 7.79865 9 8.07009 9 8.37084V14.5093C9 14.807 9.17671 15.077 9.44971 15.1963L16.5 17.9033L17.2046 18.6079C17.9133 19.3167 19.125 18.8149 19.125 17.8125V13.4905C20.1762 13.3957 21 12.5135 21 11.4375C21 10.3615 20.1762 9.47933 19.125 9.38451V5.24999C19.125 4.58922 18.5921 4.13727 18.022 4.12279ZM4.74097 8.24999C3.77947 8.24999 3 9.00099 3 9.92724V12.947C3 13.8736 3.77947 14.625 4.74097 14.625H7.875V8.24999H4.74097ZM5.4375 15.75C5.4375 17.4082 5.74031 18.8494 5.96118 19.4055C6.07481 19.6909 6.35059 19.875 6.65771 19.875H8.11377C8.61552 19.875 8.97476 19.3948 8.83301 18.9133C8.63876 18.2544 8.4375 16.9151 8.4375 15.75H5.4375Z" fill="#1C1D20"/>
</svg>
