<svg width="24" height="24" viewBox="0 0 24 24" fill="none" xmlns="http://www.w3.org/2000/svg">
<path d="M5.25 3.375C4.21613 3.375 3.375 4.21613 3.375 5.25V14.625C3.375 15.5302 4.02038 16.2875 4.875 16.4619V7.875C4.875 6.22088 6.22088 4.875 7.875 4.875H16.4619C16.2875 4.02038 15.5302 3.375 14.625 3.375H5.25ZM7.875 6C6.84113 6 6 6.84113 6 7.875V17.25C6 18.2839 6.84113 19.125 7.875 19.125H16.5396L10.021 12.5984L9.12085 10.6179C8.92847 10.1769 8.97198 9.68745 9.22998 9.2937C9.49511 8.88945 9.93625 8.64844 10.4114 8.64844C10.5824 8.64844 10.75 8.67956 10.9094 8.74219L12.9961 9.61743L19.125 15.7463V7.875C19.125 6.84113 18.2839 6 17.25 6H7.875ZM10.4194 9.77344C10.2358 9.76685 10.0654 9.96966 10.1448 10.1521L10.9607 11.9473L18.3647 19.3608L19.7607 17.9736L12.3567 10.5696L10.4985 9.78955C10.4725 9.77938 10.4457 9.77438 10.4194 9.77344ZM20.4133 18.6357L19.032 20.0266L19.7336 20.7202C20.0689 21.0555 20.5863 21.101 20.8945 20.7927L21.1304 20.5481C21.4746 20.2038 21.4472 19.7044 21.1025 19.3418L20.4133 18.6357Z" fill="#1C1D20"/>
</svg>
