<svg width="24" height="24" viewBox="0 0 24 24" fill="none" xmlns="http://www.w3.org/2000/svg">
<path d="M16.8679 21.7346C15.4204 21.7346 14.2429 20.5571 14.2429 19.1096C14.2429 17.6621 15.4204 16.4846 16.8679 16.4846C18.3154 16.4846 19.4929 17.6621 19.4929 19.1096C19.4929 20.5571 18.315 21.7346 16.8679 21.7346Z" fill="#1C1D20"/>
<path d="M5.24774 15.003C3.80024 15.003 2.62274 13.8255 2.62274 12.378C2.62274 10.9305 3.80024 9.75299 5.24774 9.75299C6.69524 9.75299 7.87274 10.9305 7.87274 12.378C7.87274 13.8255 6.69524 15.003 5.24774 15.003Z" fill="#1C1D20"/>
<path d="M13.9065 12.3206L16.2881 16.4456C16.4951 16.8045 16.3579 17.2395 16.0136 17.4701C15.6499 17.7139 15.1282 17.4364 14.9891 17.1956L12.6075 13.0706H7.84424C7.43024 13.0706 7.09424 12.7346 7.09424 12.3206C7.09424 11.9066 7.43024 11.5706 7.84424 11.5706H12.6071L15.0266 7.37999C15.234 7.02149 15.6915 6.89774 16.0511 7.10549C16.41 7.31249 16.5326 7.77111 16.3256 8.12999L13.9065 12.3206Z" fill="#1C1D20"/>
<path d="M17.0497 8.26987C15.6022 8.26987 14.4247 7.09237 14.4247 5.64487C14.4247 4.19737 15.6022 3.01987 17.0497 3.01987C18.4972 3.01987 19.6747 4.19737 19.6747 5.64487C19.6747 7.09237 18.4972 8.26987 17.0497 8.26987Z" fill="#1C1D20"/>
</svg>
