<svg width="24" height="24" viewBox="0 0 24 24" fill="none" xmlns="http://www.w3.org/2000/svg">
<path d="M18.75 5.625C19.785 5.625 20.625 6.465 20.625 7.5V16.5C20.625 17.535 19.785 18.375 18.75 18.375H17.25V17.8125C17.25 17.295 16.83 16.875 16.3125 16.875C15.795 16.875 15.375 17.295 15.375 17.8125V18.375H8.625V17.8125C8.625 17.295 8.205 16.875 7.6875 16.875C7.17 16.875 6.75 17.295 6.75 17.8125V18.375H5.25C4.215 18.375 3.375 17.535 3.375 16.5V6C3.375 4.965 4.215 4.125 5.25 4.125H9.75C10.6575 4.125 11.4113 4.77 11.5875 5.625H18.75ZM11.1776 14.2549C11.2897 14.2549 11.649 14.2129 11.649 13.8622C11.649 13.2116 11.0996 12.6461 10.7857 12.4189C10.1092 11.9288 9.456 11.7896 8.8125 11.7896C8.169 11.7896 7.51575 11.9288 6.83925 12.4189C6.52538 12.6461 5.976 13.2116 5.976 13.8622C5.976 14.2129 6.33525 14.2549 6.44738 14.2549C6.5595 14.2549 11.0655 14.2549 11.1776 14.2549ZM8.81888 11.1784C9.5505 11.1784 10.1434 10.524 10.1434 9.71662C10.1434 8.90925 9.5505 8.25488 8.81888 8.25488C8.08763 8.25488 7.49438 8.90925 7.49438 9.71662C7.49438 10.524 8.08763 11.1784 8.81888 11.1784ZM17.0625 13.5C17.373 13.5 17.625 13.2484 17.625 12.9375C17.625 12.6266 17.373 12.375 17.0625 12.375H14.0625C13.752 12.375 13.5 12.6266 13.5 12.9375C13.5 13.2484 13.752 13.5 14.0625 13.5H17.0625ZM17.0625 10.875C17.373 10.875 17.625 10.6234 17.625 10.3125C17.625 10.0016 17.373 9.75 17.0625 9.75H14.0625C13.752 9.75 13.5 10.0016 13.5 10.3125C13.5 10.6234 13.752 10.875 14.0625 10.875H17.0625Z" fill="#1C1D20"/>
</svg>
