<svg width="24" height="24" viewBox="0 0 24 24" fill="none" xmlns="http://www.w3.org/2000/svg">
<path d="M14.1855 12.75L15.174 13.7385C16.5177 15.0818 17.2553 16.8698 17.25 18.7703C17.2478 19.5904 16.5698 20.25 15.75 20.25H8.25003C7.43028 20.25 6.75228 19.5904 6.75003 18.7706C6.74478 16.8698 7.4824 15.0821 8.82603 13.7385L9.81453 12.75C10.0148 12.5498 10.125 12.2831 10.125 12C10.125 11.7169 10.0148 11.4503 9.81453 11.25L8.79603 10.2315C7.4764 8.91225 6.75003 7.15837 6.75003 5.29237C6.75003 4.4265 7.42203 3.75 8.24815 3.75H15.7519C16.578 3.75 17.25 4.4265 17.25 5.25825C17.25 7.15838 16.5233 8.91225 15.204 10.2315L14.1855 11.25C13.9853 11.4503 13.875 11.7169 13.875 12C13.875 12.2831 13.9853 12.5498 14.1855 12.75ZM15.189 18.75C15.5273 18.75 15.6927 18.3375 15.4478 18.1039L12.4913 15.2812C12.417 15.2104 12.375 15.1125 12.375 15.0101V12C12.375 11.3175 12.6413 10.6725 13.125 10.1888L13.2987 10.0155C13.5357 9.77962 13.3684 9.375 13.0339 9.375H10.9658C10.6313 9.375 10.464 9.77962 10.701 10.0155L10.875 10.1888C11.3588 10.6725 11.625 11.3175 11.625 12V15.0101C11.625 15.1125 11.583 15.2107 11.5088 15.2812L8.5519 18.1039C8.3074 18.3375 8.47278 18.75 8.81103 18.75H15.189Z" fill="#1C1D20"/>
</svg>
