<svg width="24" height="24" viewBox="0 0 24 24" fill="none" xmlns="http://www.w3.org/2000/svg">
<path d="M10.125 3.375C6.40312 3.375 3.375 6.40312 3.375 10.125C3.375 13.8469 6.40312 16.875 10.125 16.875C11.6735 16.875 13.0974 16.3453 14.2375 15.4651L19.1433 20.3708C19.4823 20.7098 20.0318 20.7098 20.3708 20.3708C20.7098 20.0318 20.7098 19.4823 20.3708 19.1433L15.4651 14.2375C16.3453 13.0974 16.875 11.6735 16.875 10.125C16.875 6.40312 13.8469 3.375 10.125 3.375ZM10.125 4.875C13.0196 4.875 15.375 7.23037 15.375 10.125C15.375 13.0196 13.0196 15.375 10.125 15.375C7.23037 15.375 4.875 13.0196 4.875 10.125C4.875 7.23037 7.23037 4.875 10.125 4.875Z" fill="#1C1D20"/>
</svg>
