<svg width="24" height="24" viewBox="0 0 24 24" fill="none" xmlns="http://www.w3.org/2000/svg">
<path d="M7.5 3.75C6.25725 3.75 5.25 4.75725 5.25 6V18C5.25 19.2428 6.25725 20.25 7.5 20.25H16.5C17.7428 20.25 18.75 19.2428 18.75 18V11.25H13.5C12.2572 11.25 11.25 10.2428 11.25 9V3.75H7.5ZM12.75 3.81445V9C12.75 9.41437 13.086 9.75 13.5 9.75H18.6855L12.75 3.81445ZM9 13.125H15C15.414 13.125 15.75 13.4606 15.75 13.875C15.75 14.2894 15.414 14.625 15 14.625H9C8.586 14.625 8.25 14.2894 8.25 13.875C8.25 13.4606 8.586 13.125 9 13.125ZM9 16.125H15C15.414 16.125 15.75 16.4606 15.75 16.875C15.75 17.2894 15.414 17.625 15 17.625H9C8.586 17.625 8.25 17.2894 8.25 16.875C8.25 16.4606 8.586 16.125 9 16.125Z" fill="#1C1D20"/>
</svg>
