<svg width="24" height="24" viewBox="0 0 24 24" fill="none" xmlns="http://www.w3.org/2000/svg">
<path d="M5.27563 5.25073C4.49226 5.25073 3.88151 5.47878 3.44238 5.93628C3.00326 6.39378 2.7832 7.08434 2.7832 8.00684V15.9939C2.7832 16.9164 3.01795 17.6062 3.48633 18.0637C3.95508 18.5212 4.65363 18.75 5.58325 18.75H18.7244C19.5074 18.75 20.1185 18.5212 20.5576 18.0637C20.9967 17.6062 21.2161 16.9164 21.2161 15.9939V8.00684C21.2161 7.08434 20.982 6.39378 20.5137 5.93628C20.0449 5.47878 19.3456 5.25073 18.416 5.25073H5.27563ZM5.51807 6.74414H18.4717C18.5436 6.74414 18.6093 6.75176 18.6753 6.75879L13.0378 12.3406C12.8477 12.5236 12.67 12.6593 12.5054 12.7471C12.3407 12.8348 12.1742 12.8789 12.0059 12.8789C11.83 12.8789 11.6593 12.8348 11.4946 12.7471C11.33 12.6593 11.1527 12.5236 10.9622 12.3406L5.32471 6.75806C5.38754 6.75172 5.44977 6.74414 5.51807 6.74414ZM4.30444 7.76367L8.58984 11.989L4.30591 16.2561C4.29534 16.1732 4.28833 16.087 4.28833 15.9939V7.99585C4.28833 7.91361 4.2959 7.83797 4.30444 7.76367ZM19.6963 7.77173C19.7049 7.84703 19.7124 7.9233 19.7124 8.00684V16.0049C19.7124 16.097 19.7057 16.1828 19.6948 16.2649L15.4109 11.9897L19.6963 7.77173ZM14.3921 12.9924L18.6526 17.2441C18.5934 17.2497 18.5356 17.2566 18.4717 17.2566H5.51807C5.4611 17.2566 5.41009 17.2493 5.35693 17.2449L9.61304 12.9976L10.1279 13.5051C10.4426 13.8126 10.7535 14.0354 11.061 14.1746C11.3685 14.3137 11.6837 14.3833 12.0059 14.3833C12.328 14.3833 12.6407 14.3137 12.9448 14.1746C13.2486 14.0354 13.5574 13.8119 13.8721 13.5044L14.3921 12.9924Z" fill="#1C1D20"/>
</svg>
