<svg width="24" height="24" viewBox="0 0 24 24" fill="none" xmlns="http://www.w3.org/2000/svg">
<path d="M20.3531 17.0625C20.6917 17.6498 20.6917 18.3506 20.3527 18.9375C20.0141 19.5244 19.407 19.875 18.729 19.875H5.27099C4.59299 19.875 3.98587 19.5244 3.64724 18.9375C3.30824 18.3506 3.30824 17.6498 3.64687 17.0625L10.3762 5.40714C10.7152 4.82026 11.322 4.46964 12 4.46964C12.678 4.46964 13.2851 4.82026 13.6237 5.40714L20.3531 17.0625ZM11.3621 8.86051C11.2001 9.01913 11.1225 9.21713 11.1296 9.45489L11.2485 13.8979C11.2627 14.3951 11.5151 14.6438 12.0052 14.6438C12.4807 14.6438 12.7222 14.3951 12.7294 13.8979L12.87 9.46576C12.8771 9.22801 12.7961 9.02814 12.6266 8.86576C12.4571 8.70376 12.2464 8.62239 11.9944 8.62239C11.7352 8.62276 11.5245 8.70189 11.3621 8.86051ZM12 17.433C12.588 17.433 12.9401 16.9729 12.9401 16.5338C12.9401 16.0946 12.5756 15.6345 12 15.6345C11.4244 15.6345 11.0599 16.1209 11.0599 16.5338C11.0599 16.947 11.412 17.433 12 17.433Z" fill="#1C1D20"/>
</svg>
