<svg width="24" height="24" viewBox="0 0 24 24" fill="none" xmlns="http://www.w3.org/2000/svg">
<path d="M12 5.25C6.56175 5.25 1.875 9.77738 1.875 12C1.875 14.2226 6.56175 18.75 12 18.75C17.4382 18.75 22.125 14.2226 22.125 12C22.125 9.77738 17.4382 5.25 12 5.25ZM12 6.75C16.8536 6.75 20.625 10.9376 20.625 12C20.625 13.0624 16.8536 17.25 12 17.25C7.14638 17.25 3.375 13.0624 3.375 12C3.375 10.9376 7.14638 6.75 12 6.75ZM12 7.875C9.72188 7.875 7.875 9.72188 7.875 12C7.875 14.2781 9.72188 16.125 12 16.125C14.2781 16.125 16.125 14.2781 16.125 12C16.125 9.72188 14.2781 7.875 12 7.875ZM12 10.5C12.8284 10.5 13.5 11.1716 13.5 12C13.5 12.8284 12.8284 13.5 12 13.5C11.1716 13.5 10.5 12.8284 10.5 12C10.5 11.1716 11.1716 10.5 12 10.5Z" fill="#1C1D20"/>
</svg>
