<svg width="24" height="24" viewBox="0 0 24 24" fill="none" xmlns="http://www.w3.org/2000/svg">
<path fill-rule="evenodd" clip-rule="evenodd" d="M11.625 3.5625C16.1741 3.5625 19.875 7.26337 19.875 11.8125C19.875 15.9799 16.7685 19.4332 12.75 19.9837V14.25H14.25L15 12.3641L12.75 12.375V10.6012C12.75 10.131 13.131 9.75 13.6012 9.75C13.9395 9.75 14.25 9.75 14.25 9.75V8.25H12.6544C12.0829 8.25 11.535 8.47687 11.1311 8.88112C10.7269 9.285 10.5 9.83287 10.5 10.4044C10.5 11.3992 10.5 12.3641 10.5 12.3641H9V14.25H10.5V19.9837C6.4815 19.4332 3.375 15.9799 3.375 11.8125C3.375 7.26337 7.07588 3.5625 11.625 3.5625Z" fill="#1C1D20"/>
</svg>
