<svg width="24" height="24" viewBox="0 0 24 24" fill="none" xmlns="http://www.w3.org/2000/svg">
<path d="M15.0851 4.5C19.1798 4.5 19.5 4.82025 19.5 8.91488V15.0848C19.5 19.1794 19.1798 19.5 15.0851 19.5H14.3018V14.0392H16.227L16.5296 11.8755H14.3018C14.3018 11.8755 14.2984 10.6088 14.3018 10.2926C14.3081 9.67425 14.8245 9.3615 15.2681 9.366C15.7118 9.3705 16.6309 9.3675 16.6309 9.3675V7.37363C16.6309 7.37363 15.8348 7.2705 15 7.26187C14.2984 7.25475 13.5236 7.4445 12.8985 8.0745C12.2625 8.71537 12.1624 9.66975 12.15 10.836C12.1466 11.1735 12.15 11.8755 12.15 11.8755H10.266V14.0392H12.15V19.5H8.91525C4.82025 19.5 4.5 19.1794 4.5 15.0851V8.91488C4.5 4.82025 4.82025 4.5 8.91488 4.5H15.0851Z" fill="#1C1D20"/>
</svg>
