<svg width="24" height="24" viewBox="0 0 24 24" fill="none" xmlns="http://www.w3.org/2000/svg">
<path d="M4.47375 15.375H7.09125C7.45875 17.1225 8.1075 18.6075 8.94 19.6612C6.9525 18.87 5.34375 17.3212 4.47375 15.375ZM11.4375 20.1675C10.035 19.7662 8.835 17.8875 8.25 15.375H11.4375V20.1675ZM12.5625 15.375H15.75C15.165 17.8875 13.965 19.7662 12.5625 20.1675V15.375ZM15.06 19.6612C15.8925 18.6075 16.5413 17.1225 16.9088 15.375H19.5262C18.6562 17.3212 17.0475 18.87 15.06 19.6612ZM6.75 12C6.75 12.78 6.8025 13.53 6.89625 14.25H4.06125C3.85875 13.5337 3.75 12.78 3.75 12C3.75 11.22 3.85875 10.4662 4.06125 9.74999H6.89625C6.8025 10.47 6.75 11.22 6.75 12ZM7.875 12C7.875 11.2237 7.935 10.47 8.04 9.74999H11.4375V14.25H8.04C7.935 13.53 7.875 12.7762 7.875 12ZM16.125 12C16.125 12.7762 16.065 13.53 15.96 14.25H12.5625V9.74999H15.96C16.065 10.47 16.125 11.2237 16.125 12ZM19.9387 9.74999C20.1412 10.4662 20.25 11.22 20.25 12C20.25 12.78 20.1412 13.5337 19.9387 14.25H17.1038C17.1975 13.53 17.25 12.78 17.25 12C17.25 11.22 17.1975 10.47 17.1038 9.74999H19.9387ZM8.94 4.33874C8.1075 5.39249 7.45875 6.87749 7.09125 8.62499H4.47375C5.34375 6.67874 6.9525 5.12999 8.94 4.33874ZM8.25 8.62499C8.835 6.11249 10.035 4.23374 11.4375 3.83249V8.62499H8.25ZM12.5625 3.83249C13.965 4.23374 15.165 6.11249 15.75 8.62499H12.5625V3.83249ZM19.5262 8.62499H16.9088C16.5413 6.87749 15.8925 5.39249 15.06 4.33874C17.0475 5.12999 18.6562 6.67874 19.5262 8.62499Z" fill="#1C1D20"/>
</svg>
