<svg width="24" height="24" viewBox="0 0 24 24" fill="none" xmlns="http://www.w3.org/2000/svg">
<path d="M13.5 9.75C14.1214 9.75 14.625 10.2536 14.625 10.875V13.125C14.625 13.7464 14.1214 14.25 13.5 14.25H10.5C9.87862 14.25 9.375 13.7464 9.375 13.125V10.875C9.375 10.2536 9.87862 9.75 10.5 9.75H13.5ZM19.5 9.75C20.1214 9.75 20.625 10.2536 20.625 10.875V13.125C20.625 13.7464 20.1214 14.25 19.5 14.25H16.5C15.8786 14.25 15.375 13.7464 15.375 13.125V10.875C15.375 10.2536 15.8786 9.75 16.5 9.75H19.5ZM7.5 9.75C8.12138 9.75 8.625 10.2536 8.625 10.875V13.125C8.625 13.7464 8.12138 14.25 7.5 14.25H4.5C3.87863 14.25 3.375 13.7464 3.375 13.125V10.875C3.375 10.2536 3.87863 9.75 4.5 9.75H7.5ZM13.5 4.5C14.1214 4.5 14.625 5.00363 14.625 5.625V7.875C14.625 8.49638 14.1214 9 13.5 9H10.5C9.87862 9 9.375 8.49638 9.375 7.875V5.625C9.375 5.00363 9.87862 4.5 10.5 4.5H13.5ZM19.5 4.5C20.1214 4.5 20.625 5.00363 20.625 5.625V7.875C20.625 8.49638 20.1214 9 19.5 9H16.5C15.8786 9 15.375 8.49638 15.375 7.875V5.625C15.375 5.00363 15.8786 4.5 16.5 4.5H19.5ZM7.5 4.5C8.12138 4.5 8.625 5.00363 8.625 5.625V7.875C8.625 8.49638 8.12138 9 7.5 9H4.5C3.87863 9 3.375 8.49638 3.375 7.875V5.625C3.375 5.00363 3.87863 4.5 4.5 4.5H7.5ZM13.5 15C14.1214 15 14.625 15.5036 14.625 16.125V18.375C14.625 18.9964 14.1214 19.5 13.5 19.5H10.5C9.87862 19.5 9.375 18.9964 9.375 18.375V16.125C9.375 15.5036 9.87862 15 10.5 15H13.5ZM19.5 15C20.1214 15 20.625 15.5036 20.625 16.125V18.375C20.625 18.9964 20.1214 19.5 19.5 19.5H16.5C15.8786 19.5 15.375 18.9964 15.375 18.375V16.125C15.375 15.5036 15.8786 15 16.5 15H19.5ZM7.5 15C8.12138 15 8.625 15.5036 8.625 16.125V18.375C8.625 18.9964 8.12138 19.5 7.5 19.5H4.5C3.87863 19.5 3.375 18.9964 3.375 18.375V16.125C3.375 15.5036 3.87863 15 4.5 15H7.5Z" fill="#1C1D20"/>
</svg>
