<svg width="24" height="24" viewBox="0 0 24 24" fill="none" xmlns="http://www.w3.org/2000/svg">
<path d="M12 3.75C16.5562 3.75 20.25 7.44375 20.25 12C20.25 16.5562 16.5562 20.25 12 20.25C7.44375 20.25 3.75 16.5562 3.75 12C3.75 7.44375 7.44375 3.75 12 3.75ZM11.811 16.1276C12.399 16.1276 12.7507 15.6675 12.7507 15.2284C12.7507 14.7893 12.3863 14.3291 11.811 14.3291C11.2358 14.3291 10.8709 14.8155 10.8709 15.2284C10.8709 15.6413 11.223 16.1276 11.811 16.1276ZM12.567 12.9705C12.567 11.727 14.7431 11.8538 14.7431 9.864C14.7431 8.865 13.8266 7.81087 12.0971 7.81087C10.7512 7.81087 9.4305 8.51625 9.4305 9.57825C9.4305 9.77588 9.55387 10.1914 10.0538 10.1914C10.3256 10.1914 10.5041 10.0811 10.6571 9.92887C10.9991 9.58837 11.2114 9.03675 12.0461 9.03675C12.3799 9.03675 13.1494 9.20588 13.1494 10.0073C13.1494 11.2193 11.106 11.1716 11.106 12.8985C11.106 13.4389 11.3422 13.6751 11.8312 13.6751C12.606 13.6755 12.567 13.041 12.567 12.9705Z" fill="#1C1D20"/>
</svg>
