<svg width="24" height="24" viewBox="0 0 24 24" fill="none" xmlns="http://www.w3.org/2000/svg">
<path d="M12 3.75C16.5562 3.75 20.25 7.44375 20.25 12C20.25 16.5562 16.5562 20.25 12 20.25C7.44375 20.25 3.75 16.5562 3.75 12C3.75 7.44375 7.44375 3.75 12 3.75ZM11.2489 12.7729C11.2631 13.2701 11.5155 13.5187 12.0056 13.5187C12.4811 13.5187 12.7226 13.2701 12.7297 12.7729L12.8704 8.34075C12.8775 8.103 12.7965 7.90313 12.627 7.74075C12.4575 7.57875 12.2467 7.49738 11.9948 7.49738C11.7352 7.49738 11.5245 7.5765 11.3625 7.73513C11.2005 7.89375 11.1229 8.09175 11.13 8.3295L11.2489 12.7729ZM11.0599 15.4091C11.0599 15.822 11.412 16.3084 12 16.3084C12.588 16.3084 12.9401 15.8482 12.9401 15.4091C12.9401 14.97 12.5752 14.5099 12 14.5099C11.4247 14.5099 11.0599 14.9963 11.0599 15.4091Z" fill="#1C1D20"/>
</svg>
