<svg width="24" height="24" viewBox="0 0 24 24" fill="none" xmlns="http://www.w3.org/2000/svg">
<path d="M12 3C11.6583 3 11.3168 3.11595 11.0383 3.34863L3.3003 9.81445C3.01343 10.0541 2.91132 10.472 3.10182 10.7937C3.34444 11.2032 3.88135 11.2832 4.23048 10.9915L11.8792 4.60107C11.9493 4.54257 12.0507 4.54257 12.1209 4.60107L19.7695 10.9922C19.9098 11.1096 20.0798 11.1665 20.2493 11.1665C20.5099 11.1665 20.7685 11.0312 20.9114 10.771C21.0858 10.453 20.9831 10.0513 20.7048 9.81885L19.5 8.81177V5.625C19.5 5.21062 19.1644 4.875 18.75 4.875H18C17.5856 4.875 17.25 5.21062 17.25 5.625V6.93164L12.9617 3.34863C12.6832 3.11595 12.3417 3 12 3ZM12 6L4.50001 12.2666V17.625C4.50001 18.66 5.34001 19.5 6.37501 19.5H9.37501C9.99751 19.5 10.5 18.9975 10.5 18.375V14.625C10.5 14.2125 10.8375 13.875 11.25 13.875H12.75C13.1625 13.875 13.5 14.2125 13.5 14.625V18.375C13.5 18.9975 14.0025 19.5 14.625 19.5H17.625C18.66 19.5 19.5 18.66 19.5 17.625V12.2666L12 6Z" fill="#1C1D20"/>
</svg>
