<svg width="24" height="24" viewBox="0 0 24 24" fill="none" xmlns="http://www.w3.org/2000/svg">
<path d="M7.5 3.75C6.25725 3.75 5.25 4.75725 5.25 6V18C5.25 19.2428 6.25725 20.25 7.5 20.25H16.5C17.7428 20.25 18.75 19.2428 18.75 18V11.25H13.5C12.2572 11.25 11.25 10.2428 11.25 9V3.75H7.5ZM12.75 3.81445V9C12.75 9.41437 13.086 9.75 13.5 9.75H18.6855L12.75 3.81445ZM9 12C9.62138 12 10.125 12.5036 10.125 13.125C10.125 13.7464 9.62138 14.25 9 14.25C8.37862 14.25 7.875 13.7464 7.875 13.125C7.875 12.5036 8.37862 12 9 12ZM14.1006 14.6396C14.3405 14.6394 14.5801 14.7254 14.7708 14.8967L17.25 17.1255V18C17.25 18.4144 16.914 18.75 16.5 18.75H7.5C7.086 18.75 6.75 18.4144 6.75 18V17.4609L8.34888 16.084C8.7235 15.7615 9.27684 15.7604 9.65259 16.0818L10.9204 17.1658L13.4304 14.8982C13.6207 14.7263 13.8607 14.6399 14.1006 14.6396Z" fill="#1C1D20"/>
</svg>
