<svg width="24" height="24" viewBox="0 0 24 24" fill="none" xmlns="http://www.w3.org/2000/svg">
<path d="M5.25 4.5C4.00912 4.5 3 5.50912 3 6.75V14.625C3 15.8659 4.00912 16.875 5.25 16.875H15.75C16.9909 16.875 18 15.8659 18 14.625V6.75C18 5.50912 16.9909 4.5 15.75 4.5H5.25ZM5.25 6H15.75C16.1636 6 16.5 6.33637 16.5 6.75V13.5381L14.0801 11.3621C13.3882 10.7399 12.3377 10.741 11.647 11.365L9.28564 13.4985L7.89038 12.3054C7.45013 11.9289 6.8013 11.9296 6.36255 12.3076L4.5 13.9124V6.75C4.5 6.33637 4.83637 6 5.25 6ZM20.25 7.5C19.8356 7.5 19.5 7.83562 19.5 8.25V17.625C19.5 18.0375 19.1625 18.375 18.75 18.375H6.75C6.33562 18.375 6 18.7106 6 19.125C6 19.5394 6.33562 19.875 6.75 19.875H18.75C19.9928 19.875 21 18.8678 21 17.625V8.25C21 7.83562 20.6644 7.5 20.25 7.5ZM7.6875 7.875C6.96263 7.875 6.375 8.46263 6.375 9.1875C6.375 9.91237 6.96263 10.5 7.6875 10.5C8.41237 10.5 9 9.91237 9 9.1875C9 8.46263 8.41237 7.875 7.6875 7.875Z" fill="#1C1D20"/>
</svg>
