<svg width="24" height="24" viewBox="0 0 24 24" fill="none" xmlns="http://www.w3.org/2000/svg">
<path d="M12 3.75C16.5562 3.75 20.25 7.44375 20.25 12C20.25 16.5562 16.5562 20.25 12 20.25C7.44375 20.25 3.75 16.5562 3.75 12C3.75 7.44375 7.44375 3.75 12 3.75ZM12.75 15.75C12.75 15.5246 12.75 12.2254 12.75 12C12.75 11.586 12.4144 11.25 12 11.25C11.5856 11.25 11.25 11.586 11.25 12C11.25 12.2254 11.25 15.5246 11.25 15.75C11.25 16.164 11.5856 16.5 12 16.5C12.4144 16.5 12.75 16.164 12.75 15.75ZM12 10.125C12.6214 10.125 13.125 9.62138 13.125 9C13.125 8.37862 12.6214 7.875 12 7.875C11.3786 7.875 10.875 8.37862 10.875 9C10.875 9.62138 11.3786 10.125 12 10.125Z" fill="black"/>
</svg>
