<svg width="24" height="24" viewBox="0 0 24 24" fill="none" xmlns="http://www.w3.org/2000/svg">
<path d="M11.9326 4.5C5.03937 4.5 4.5 5.03974 4.5 11.9326V12.0674C4.5 18.9603 5.03937 19.5 11.9326 19.5H12.0674C18.9606 19.5 19.5 18.9603 19.5 12.0674V12C19.5 5.0445 18.9555 4.5 12 4.5H11.9326ZM16.4978 6.75C16.9122 6.74887 17.2489 7.08343 17.25 7.4978C17.2511 7.91218 16.9166 8.24887 16.5022 8.25C16.0878 8.25113 15.7511 7.91657 15.75 7.5022C15.7489 7.08782 16.0834 6.75113 16.4978 6.75ZM11.9912 8.25C14.062 8.24513 15.7451 9.92046 15.75 11.9912C15.7549 14.062 14.0795 15.7451 12.0088 15.75C9.93804 15.7549 8.25487 14.0795 8.25 12.0088C8.24513 9.93804 9.92046 8.25487 11.9912 8.25ZM11.9949 9.75C10.7521 9.753 9.747 10.7631 9.75 12.0059C9.753 13.2482 10.7628 14.253 12.0051 14.25C13.2479 14.247 14.253 13.2372 14.25 11.9949C14.247 10.7521 13.2372 9.747 11.9949 9.75Z" fill="#1C1D20"/>
</svg>
