<svg width="24" height="24" viewBox="0 0 24 24" fill="none" xmlns="http://www.w3.org/2000/svg">
<path d="M12 2.85718C11.8612 2.85718 11.7224 2.89488 11.5986 2.97363L3.21021 8.26904C2.99271 8.40779 2.85718 8.64759 2.85718 8.90259C2.85718 9.16134 2.99271 9.40104 3.21021 9.53979L11.5986 14.8352C11.7224 14.9102 11.8612 14.9509 12 14.9509C12.1388 14.9509 12.2776 14.9102 12.4014 14.8352L20.7898 9.53979C21.0073 9.40104 21.1428 9.16134 21.1428 8.90259C21.1428 8.64759 21.0073 8.40779 20.7898 8.26904L12.4014 2.97363C12.2776 2.89488 12.1388 2.85718 12 2.85718ZM3.60352 11.1189L3.21021 11.3665C2.99271 11.5015 2.85718 11.7413 2.85718 12C2.85718 12.2587 2.99271 12.4985 3.21021 12.6335L11.5986 17.929C11.7224 18.0077 11.8612 18.0447 12 18.0447C12.1388 18.0447 12.2776 18.0077 12.4014 17.929L20.7898 12.6335C21.0073 12.4985 21.1428 12.2587 21.1428 12C21.1428 11.7413 21.0073 11.5015 20.7898 11.3665L20.3965 11.1189C20.3965 11.1189 13.0009 15.7878 12.9822 15.7991C12.6822 15.9791 12.3413 16.0759 12 16.0759C11.6587 16.0759 11.3175 15.9786 10.9988 15.7874L3.60352 11.1189ZM3.60352 14.2126L3.21021 14.4602C2.99271 14.599 2.85718 14.8387 2.85718 15.0974C2.85718 15.3524 2.99271 15.5922 3.21021 15.731L11.2009 20.7715C11.4409 20.9252 11.7225 21.0037 12 21.0037C12.2775 21.0037 12.5591 20.9252 12.7991 20.7715L20.7898 15.731C21.0073 15.5922 21.1428 15.3524 21.1428 15.0974C21.1428 14.8387 21.0073 14.599 20.7898 14.4602L20.3965 14.2126L13.0049 18.8774C12.7049 19.0687 12.3562 19.1697 12 19.1697C11.6438 19.1697 11.295 19.0686 10.9988 18.8811L3.60352 14.2126Z" fill="#1C1D20"/>
</svg>
