<svg width="24" height="24" viewBox="0 0 24 24" fill="none" xmlns="http://www.w3.org/2000/svg">
<path d="M20.7788 7.34624C20.9288 7.49624 21.0038 7.69124 21 7.88999C20.9963 8.07749 20.925 8.26124 20.7788 8.40374L8.22376 20.9625C8.07751 21.1087 7.88626 21.1837 7.69126 21.1837C7.50001 21.1837 7.30876 21.1087 7.16251 20.9625L2.95501 16.755C2.80876 16.6087 2.73376 16.4175 2.73376 16.2225C2.73376 16.0312 2.80876 15.84 2.95501 15.6937L4.66876 13.98L6.59626 15.9037C6.74251 16.05 6.93376 16.125 7.12501 16.125C7.31626 16.125 7.50751 16.05 7.65376 15.9037C7.95001 15.6112 7.95001 15.1387 7.65376 14.8462L5.73001 12.9187L6.91877 11.73L9.78376 14.5912C9.93001 14.7375 10.1213 14.8125 10.3125 14.8125C10.5038 14.8125 10.695 14.7375 10.8413 14.5912C11.1375 14.2987 11.1375 13.8262 10.8413 13.5337L7.98001 10.6687L8.98126 9.66749L10.9088 11.5912C11.055 11.7375 11.2463 11.8125 11.4375 11.8125C11.6288 11.8125 11.82 11.7375 11.9663 11.5912C12.2625 11.2987 12.2625 10.8262 11.9663 10.5337L10.0388 8.60624L11.2313 7.41749L14.0963 10.2787C14.2425 10.425 14.4338 10.5 14.625 10.5C14.8163 10.5 15.0075 10.425 15.1538 10.2787C15.45 9.98624 15.45 9.51374 15.1538 9.22124L12.2888 6.35624L15.51 3.13499C15.8063 2.84249 16.2788 2.84249 16.5713 3.13499L20.7788 7.34624ZM16.6875 8.24999C17.205 8.24999 17.625 7.82999 17.625 7.31249C17.625 6.79499 17.205 6.37499 16.6875 6.37499C16.17 6.37499 15.75 6.79499 15.75 7.31249C15.75 7.82999 16.17 8.24999 16.6875 8.24999Z" fill="#1C1D20"/>
</svg>
