<svg width="24" height="24" viewBox="0 0 24 24" fill="none" xmlns="http://www.w3.org/2000/svg">
<path d="M5.625 5.25C4.38412 5.25 3.375 6.25912 3.375 7.5V16.5C3.375 17.7409 4.38412 18.75 5.625 18.75H18.375C19.6159 18.75 20.625 17.7409 20.625 16.5V7.5C20.625 6.25912 19.6159 5.25 18.375 5.25H5.625ZM6.1311 6.75H17.8696L13.2913 11.0991C12.5675 11.7872 11.4325 11.7872 10.7087 11.0991L6.1311 6.75ZM4.875 7.62671L9.67529 12.1868C10.327 12.8059 11.1638 13.1155 12 13.1155C12.8363 13.1155 13.6726 12.8055 14.3247 12.1868L19.125 7.62671V16.5C19.125 16.9136 18.7886 17.25 18.375 17.25H5.625C5.21137 17.25 4.875 16.9136 4.875 16.5V7.62671Z" fill="#1C1D20"/>
</svg>
