<svg width="24" height="24" viewBox="0 0 24 24" fill="none" xmlns="http://www.w3.org/2000/svg">
<path d="M15.4475 3.67969C14.1993 3.67969 12.9507 4.15509 12 5.10571L9.87894 7.22681C7.97769 9.12806 7.97769 12.2198 9.87894 14.1211C10.4546 14.6963 11.1333 15.0943 11.8623 15.3193L12.2652 14.9165C12.5277 14.654 12.7136 14.341 12.8145 14.0068C12.1279 13.9037 11.4671 13.5882 10.9395 13.0605C9.62436 11.7454 9.62436 9.60248 10.9395 8.28735L13.0606 6.16626C14.3757 4.85113 16.5186 4.85113 17.8338 6.16626C19.1489 7.48138 19.1489 9.62433 17.8338 10.9395L16.5638 12.2095C16.6965 12.8991 16.7041 13.6073 16.5901 14.2939C16.6512 14.2381 16.7147 14.1796 16.7732 14.1211L18.8943 12C20.7956 10.0988 20.7956 7.00696 18.8943 5.10571C17.9437 4.15509 16.6958 3.67969 15.4475 3.67969ZM12.1385 8.67993L11.7356 9.0835C11.4731 9.346 11.2872 9.65831 11.1863 9.99243C11.8729 10.0956 12.533 10.4118 13.0606 10.9395C14.3757 12.2546 14.3757 14.3968 13.0606 15.7119L10.9395 17.8337C9.62436 19.1489 7.48142 19.1489 6.16629 17.8337C4.85117 16.5186 4.85117 14.3757 6.16629 13.0605L7.43631 11.7905C7.30356 11.1009 7.29595 10.3927 7.40995 9.70605C7.34882 9.76193 7.28534 9.82041 7.22684 9.87891L5.10575 12C3.2045 13.9012 3.2045 16.993 5.10575 18.8943C7.007 20.7955 10.0988 20.7955 12 18.8943L14.1211 16.7732C16.0224 14.8719 16.0224 11.7802 14.1211 9.87891C13.5455 9.30366 12.8671 8.90531 12.1385 8.67993Z" fill="#1C1D20"/>
</svg>
