<svg width="24" height="24" viewBox="0 0 24 24" fill="none" xmlns="http://www.w3.org/2000/svg">
<path d="M5.625 8.25H4.875C4.46062 8.25 4.125 7.91438 4.125 7.5V6.75C4.125 6.33562 4.46062 6 4.875 6H5.625C6.03938 6 6.375 6.33562 6.375 6.75V7.5C6.375 7.91438 6.03938 8.25 5.625 8.25ZM19.125 7.875H9C8.586 7.875 8.25 7.539 8.25 7.125C8.25 6.711 8.586 6.375 9 6.375H19.125C19.539 6.375 19.875 6.711 19.875 7.125C19.875 7.539 19.539 7.875 19.125 7.875ZM5.625 13.125H4.875C4.46062 13.125 4.125 12.7894 4.125 12.375V11.625C4.125 11.2106 4.46062 10.875 4.875 10.875H5.625C6.03938 10.875 6.375 11.2106 6.375 11.625V12.375C6.375 12.7894 6.03938 13.125 5.625 13.125ZM19.125 12.75H9C8.586 12.75 8.25 12.414 8.25 12C8.25 11.586 8.586 11.25 9 11.25H19.125C19.539 11.25 19.875 11.586 19.875 12C19.875 12.414 19.539 12.75 19.125 12.75ZM5.625 18H4.875C4.46062 18 4.125 17.6644 4.125 17.25V16.5C4.125 16.0856 4.46062 15.75 4.875 15.75H5.625C6.03938 15.75 6.375 16.0856 6.375 16.5V17.25C6.375 17.6644 6.03938 18 5.625 18ZM19.125 17.625H9C8.586 17.625 8.25 17.289 8.25 16.875C8.25 16.461 8.586 16.125 9 16.125H19.125C19.539 16.125 19.875 16.461 19.875 16.875C19.875 17.289 19.539 17.625 19.125 17.625Z" fill="#1C1D20"/>
</svg>
