<svg width="24" height="24" viewBox="0 0 24 24" fill="none" xmlns="http://www.w3.org/2000/svg">
<path d="M12 3.375C9.312 3.375 7.125 5.562 7.125 8.25V10.2554C6.2515 10.5644 5.625 11.3955 5.625 12.375V18.375C5.625 19.6178 6.63225 20.625 7.875 20.625H16.125C17.3678 20.625 18.375 19.6178 18.375 18.375V12.375C18.375 11.3955 17.7485 10.5644 16.875 10.2554V8.25C16.875 5.562 14.688 3.375 12 3.375ZM12 4.875C13.8611 4.875 15.375 6.38925 15.375 8.25V10.125H8.625V8.25C8.625 6.38925 10.1389 4.875 12 4.875Z" fill="#1C1D20"/>
</svg>
