<svg width="24" height="24" viewBox="0 0 24 24" fill="none" xmlns="http://www.w3.org/2000/svg">
<path d="M18.9375 4.875C18.0071 4.875 17.25 5.63213 17.25 6.5625V17.4375C17.25 18.3679 18.0071 19.125 18.9375 19.125C19.8679 19.125 20.625 18.3679 20.625 17.4375V6.5625C20.625 5.63213 19.8679 4.875 18.9375 4.875ZM16.1323 6.38232L7.92773 8.64771C7.55648 8.74896 7.22241 8.92854 6.94116 9.16479C7.06116 9.46104 7.125 9.7875 7.125 10.125V13.875C7.125 14.0384 7.10937 14.1987 7.08032 14.3547C7.06319 14.4473 7.0402 14.5382 7.01367 14.6272C7.00212 14.6652 6.98814 14.7021 6.97485 14.7393C6.95161 14.8057 6.92884 14.8724 6.90015 14.9363L7.22241 16.2334C7.47366 17.2346 8.20509 18.026 9.18384 18.3523L9.93018 18.5999C10.2489 18.7049 10.5709 18.7573 10.8896 18.7573C11.7596 18.7573 12.6001 18.3753 13.1851 17.6741L13.7754 16.9666L16.1323 17.6177C16.1286 17.5577 16.125 17.4975 16.125 17.4375V6.5625C16.125 6.5025 16.1286 6.44232 16.1323 6.38232ZM4.5 8.625C3.67275 8.625 3 9.29775 3 10.125V13.875C3 14.7023 3.67275 15.375 4.5 15.375C5.32725 15.375 6 14.7023 6 13.875V10.125C6 9.29775 5.32725 8.625 4.5 8.625ZM8.59424 15.5361L12.1882 16.5286L12.0337 16.7139C11.6324 17.1939 10.995 17.374 10.4062 17.179L9.65991 16.9277C9.16866 16.7665 8.80148 16.3689 8.67773 15.8701L8.59424 15.5361Z" fill="#1C1D20"/>
</svg>
