<svg width="24" height="24" viewBox="0 0 24 24" fill="none" xmlns="http://www.w3.org/2000/svg">
<path d="M5.75464 4.52637C4.90639 4.52637 4.19416 4.67607 3.61816 4.97607C3.04216 5.27607 2.6077 5.71404 2.31445 6.29004C2.02158 6.86604 1.875 7.57163 1.875 8.40601V11.0522C1.875 11.8866 2.02194 12.5915 2.31519 13.1675C2.60844 13.7435 3.04216 14.1814 3.61816 14.4814C4.19416 14.7814 4.83168 14.9319 5.67993 14.9319V15.3069V16.9907C5.67993 17.3492 5.76773 17.6336 5.9436 17.844C6.11948 18.0544 6.3696 18.1597 6.6936 18.1597C6.92123 18.1597 7.12796 18.0991 7.31396 17.9788C7.50034 17.858 7.73507 17.6702 8.01782 17.4148L10.79 14.9319H13.0276C13.8758 14.9319 14.5881 14.7814 15.1641 14.4814C15.7401 14.1814 16.1738 13.7435 16.467 13.1675C16.7599 12.5915 16.9072 11.8866 16.9072 11.0522V8.40601C16.9072 7.57126 16.7603 6.86604 16.467 6.29004C16.1738 5.71404 15.7401 5.27607 15.1641 4.97607C14.5881 4.67607 13.8758 4.52637 13.0276 4.52637H5.75464ZM17.9773 7.52637C18.0148 7.80762 18.0337 8.09997 18.0337 8.40747V11.0515C18.0337 12.0603 17.8424 12.9453 17.4712 13.6765C17.0699 14.464 16.4701 15.071 15.6826 15.4797C14.9476 15.8622 14.0551 16.0576 13.0276 16.0576H11.22L9.35229 17.7261C9.79854 17.8648 10.305 17.9326 10.875 17.9326H13.1104L15.8848 20.4148C16.166 20.6698 16.4027 20.8573 16.5864 20.9773C16.7739 21.0973 16.9802 21.1575 17.209 21.1575C17.5315 21.1575 17.7827 21.0525 17.959 20.8425C18.1352 20.6325 18.2212 20.3477 18.2212 19.9915V17.9326C19.0724 17.9326 19.7062 17.7822 20.2837 17.4822C20.8612 17.1822 21.2926 16.7435 21.5889 16.166C21.8814 15.5923 22.0276 14.8878 22.0276 14.0515V11.4075C22.0276 10.5712 21.8814 9.86607 21.5889 9.28857C21.2926 8.71482 20.8612 8.27607 20.2837 7.97607C19.7062 7.67607 18.9977 7.52637 18.1465 7.52637H17.9773ZM5.77075 8.27783H13.2041C13.4974 8.27783 13.7212 8.51603 13.7212 8.80591C13.7212 9.09466 13.4985 9.33325 13.2041 9.33325H5.77075C5.4775 9.33325 5.25366 9.09578 5.25366 8.80591C5.25366 8.51716 5.47638 8.27821 5.77075 8.27783ZM5.77075 10.541H10.6926C11.0553 10.541 11.2097 10.8611 11.2097 11.0793C11.2097 11.3726 10.9821 11.5964 10.6926 11.5964H5.77075C5.4775 11.5964 5.25366 11.3688 5.25366 11.0793C5.25366 10.8577 5.40888 10.541 5.77075 10.541Z" fill="#1C1D20"/>
</svg>
