<svg width="24" height="24" viewBox="0 0 24 24" fill="none" xmlns="http://www.w3.org/2000/svg">
<path d="M5.89893 5.625C5.50143 5.625 5.13003 5.7334 4.81128 5.9209L10.7439 11.5613C11.3476 12.1313 12.2891 12.1313 12.8928 11.5613L18.821 5.92896C18.5023 5.73396 18.1273 5.625 17.7261 5.625H5.89893ZM4.0166 6.71997C3.84785 7.02372 3.75 7.37631 3.75 7.74756V15.8774C3.75 17.0474 4.71393 18 5.89893 18H13.5037C13.4999 17.9362 13.5 17.8763 13.5 17.8125C13.5 14.8088 15.9338 12.375 18.9375 12.375C19.2563 12.375 19.5712 12.4015 19.875 12.4578V7.74756C19.875 7.38006 19.7815 7.03104 19.6128 6.72729L13.6685 12.375C13.1472 12.8663 12.4836 13.114 11.8198 13.114C11.1523 13.114 10.4887 12.8663 9.97119 12.375L4.0166 6.71997ZM18.9375 13.5C16.5559 13.5 14.625 15.4309 14.625 17.8125C14.625 20.1941 16.5559 22.125 18.9375 22.125C21.3191 22.125 23.25 20.1941 23.25 17.8125C23.25 15.4309 21.3191 13.5 18.9375 13.5ZM18.9375 15.375C19.248 15.375 19.5 15.6266 19.5 15.9375V17.25H20.8125C21.123 17.25 21.375 17.5016 21.375 17.8125C21.375 18.1234 21.123 18.375 20.8125 18.375H19.5V19.6875C19.5 19.9984 19.248 20.25 18.9375 20.25C18.627 20.25 18.375 19.9984 18.375 19.6875V18.375H17.0625C16.752 18.375 16.5 18.1234 16.5 17.8125C16.5 17.5016 16.752 17.25 17.0625 17.25H18.375V15.9375C18.375 15.6266 18.627 15.375 18.9375 15.375Z" fill="#1C1D20"/>
</svg>
