<svg width="24" height="24" viewBox="0 0 24 24" fill="none" xmlns="http://www.w3.org/2000/svg">
<path d="M9.68062 18.75H14.3197C13.9193 19.6331 13.0312 20.25 12.0004 20.25C10.9695 20.25 10.0811 19.6331 9.68062 18.75ZM19.3159 14.8871C19.4115 14.9828 20.25 15.8602 20.25 17.25C20.25 17.664 19.914 18 19.5 18H4.5C4.086 18 3.75 17.664 3.75 17.25C3.75 15.8602 4.5885 14.9828 4.68413 14.8871C4.746 14.8249 4.81875 14.7743 4.89825 14.7375C6.04425 14.2061 6.24975 11.0006 6.35962 9.27863C6.65175 6.35888 9.01162 5.17838 10.3646 4.90688C10.6151 4.3515 11.1233 3.75 12 3.75C12.8767 3.75 13.3849 4.3515 13.635 4.9065C14.9876 5.17762 17.3471 6.35475 17.6378 9.25125C17.7502 11.0002 17.9558 14.2057 19.1014 14.7371C19.1809 14.7743 19.254 14.8253 19.3159 14.8871Z" fill="#1C1D20"/>
</svg>
