<svg width="24" height="24" viewBox="0 0 24 24" fill="none" xmlns="http://www.w3.org/2000/svg">
<path d="M12 3.75C16.5562 3.75 20.25 7.44375 20.25 12C20.25 16.5562 16.5562 20.25 12 20.25C7.44375 20.25 3.75 16.5562 3.75 12C3.75 7.44375 7.44375 3.75 12 3.75ZM16.0046 9.55725C16.23 9.20963 16.1306 8.745 15.783 8.52C15.4343 8.295 14.9704 8.394 14.7454 8.74163L11.1045 14.3614L9.18825 12.183C8.91488 11.8721 8.4405 11.8414 8.12963 12.1155C7.81875 12.3889 7.78837 12.8629 8.06175 13.1741L10.6324 16.0958C10.7756 16.2581 10.9811 16.3504 11.1956 16.3504C11.214 16.3504 11.2324 16.3496 11.2504 16.3485C11.4847 16.3313 11.697 16.2052 11.8249 16.0084L16.0046 9.55725Z" fill="#1C1D20"/>
</svg>
