<svg width="24" height="24" viewBox="0 0 24 24" fill="none" xmlns="http://www.w3.org/2000/svg">
<path d="M6 4.5C4.75912 4.5 3.75 5.50912 3.75 6.75V15.5054V15.9792L5.29395 11.1987C5.79082 9.65936 7.21233 8.625 8.83008 8.625H19.5095C19.7638 8.625 20.0119 8.65766 20.25 8.71729V8.25C20.25 7.00912 19.2409 6 18 6H10.9138C10.5744 6 10.2422 5.88339 9.97778 5.67114L9.33545 5.15771C8.80557 4.73396 8.13993 4.5 7.46118 4.5H6ZM8.83008 10.125C7.86558 10.125 7.01842 10.7422 6.72217 11.6594L4.59229 18.2527C4.97816 18.5632 5.4675 18.75 6 18.75H17.4485C18.2701 18.75 18.9888 18.2238 19.2363 17.4397L20.9297 12.0762C21.0733 11.622 20.9909 11.122 20.7092 10.738C20.5855 10.5693 20.1961 10.125 19.5095 10.125H8.83008Z" fill="#1C1D20"/>
</svg>
