<svg width="24" height="24" viewBox="0 0 24 24" fill="none" xmlns="http://www.w3.org/2000/svg">
<path d="M21.375 12C21.375 12.2925 21.2062 12.5588 20.94 12.6788L5.565 19.8038C5.46375 19.8525 5.35875 19.875 5.25 19.875C5.11013 19.875 4.974 19.8353 4.85213 19.7633C4.62638 19.6294 4.5 19.3733 4.5 19.1108V14.6288C4.5 14.2714 4.75237 13.9635 5.103 13.8934L12.7313 12.3675C13.1325 12.2888 13.1325 11.7113 12.7313 11.6325L5.103 10.107C4.75237 10.0369 4.5 9.72901 4.5 9.37126V4.87501C4.5 4.62001 4.63125 4.38001 4.845 4.24126C5.0625 4.10626 5.3325 4.08751 5.565 4.19626L20.94 11.3213C21.2062 11.4413 21.375 11.7075 21.375 12Z" fill="#1C1D20"/>
</svg>
