<svg width="24" height="24" viewBox="0 0 24 24" fill="none" xmlns="http://www.w3.org/2000/svg">
<path d="M5.24999 6.375C6.49086 6.375 7.49999 7.4685 7.49999 8.8125C7.49999 10.1565 6.49086 11.25 5.24999 11.25C4.00911 11.25 2.99999 10.1565 2.99999 8.8125C2.99999 7.4685 4.00911 6.375 5.24999 6.375ZM8.71724 13.5266C7.41824 14.1022 6.32586 14.997 5.58974 16.125H2.09436C1.59036 16.125 1.06161 15.6994 1.13061 15.0705C1.32036 13.3204 3.09149 12 5.24999 12C6.70349 12 7.97924 12.6007 8.71724 13.5266ZM22.8694 15.0679C22.938 15.6967 22.4059 16.125 21.9034 16.125C21.1237 16.125 18.7852 16.125 18.7852 16.125C17.9974 14.9179 16.8022 13.9755 15.3825 13.4081C16.1321 12.5501 17.3591 12 18.75 12C20.9066 12 22.6796 13.3185 22.8694 15.0679ZM18.75 6.375C19.9909 6.375 21 7.4685 21 8.8125C21 10.1565 19.9909 11.25 18.75 11.25C17.5091 11.25 16.5 10.1565 16.5 8.8125C16.5 7.4685 17.5091 6.375 18.75 6.375ZM17.8369 17.4799C18.3937 18.6356 17.4739 19.875 16.2866 19.875C14.2372 19.875 10.1381 19.875 8.08874 19.875C6.96149 19.875 5.95461 18.6915 6.53811 17.4799C7.46811 15.5486 9.68586 14.301 12.1875 14.301C14.6891 14.301 16.9069 15.5486 17.8369 17.4799ZM12 7.125C13.6541 7.125 15 8.55488 15 10.3125C15 12.0701 13.6541 13.5 12 13.5C10.3459 13.5 8.99999 12.0701 8.99999 10.3125C8.99999 8.55488 10.3459 7.125 12 7.125Z" fill="#1C1D20"/>
</svg>
