<svg width="24" height="24" viewBox="0 0 24 24" fill="none" xmlns="http://www.w3.org/2000/svg">
<path d="M18.375 4.875C19.6178 4.875 20.625 5.88225 20.625 7.125V16.875C20.625 18.1178 19.6178 19.125 18.375 19.125H5.625C4.38225 19.125 3.375 18.1178 3.375 16.875V7.125C3.375 5.88225 4.38225 4.875 5.625 4.875H18.375ZM8.625 8.625C7.79663 8.625 7.125 9.29663 7.125 10.125C7.125 10.9534 7.79663 11.625 8.625 11.625C9.45337 11.625 10.125 10.9534 10.125 10.125C10.125 9.29663 9.45337 8.625 8.625 8.625ZM19.125 16.875V15.5377L15.6304 12.3953C15.0589 11.8815 14.1919 11.8826 13.6219 12.3975L10.6511 15.0817L9.22875 13.8652C8.66588 13.3837 7.836 13.3853 7.27463 13.8686L4.875 15.936V16.875C4.875 17.2894 5.21062 17.625 5.625 17.625H18.375C18.789 17.625 19.125 17.2894 19.125 16.875Z" fill="#1C1D20"/>
</svg>
