<svg width="24" height="24" viewBox="0 0 24 24" fill="none" xmlns="http://www.w3.org/2000/svg">
<path d="M15.0241 3.06738C14.6546 3.06729 14.2855 3.20835 14.0031 3.49072C13.4402 4.05397 13.4402 4.9702 14.0031 5.53345L14.3605 5.89087L9.99824 9.19556C9.16499 8.77106 8.20743 8.67589 7.3183 8.91064C6.4858 9.13039 6.21565 10.184 6.82465 10.793L9.21674 13.1843L3.21967 19.7197C2.96055 20.0036 2.95455 20.4465 3.21967 20.7349C3.4998 21.0405 3.97459 21.0604 4.28022 20.7803L10.8156 14.7839L13.207 17.1746C13.816 17.7836 14.8688 17.5145 15.0886 16.6816C15.3229 15.7925 15.2282 14.8342 14.8037 14.001L18.1091 9.6394L18.4665 9.99683C19.0305 10.5608 19.9437 10.5616 20.5085 9.99683C21.0717 9.43358 21.0721 8.51771 20.5092 7.95483L16.0451 3.49072C15.7631 3.20872 15.3936 3.06748 15.0241 3.06738Z" fill="#1C1D20"/>
</svg>
