<svg width="24" height="24" viewBox="0 0 24 24" fill="none" xmlns="http://www.w3.org/2000/svg">
<path d="M16.8829 12.315C16.9972 12.2411 17.0543 12.1207 17.0543 12C17.0543 11.8796 16.9972 11.7589 16.8829 11.685C14.4945 10.1392 9.71737 7.04812 7.32862 5.50275C7.24125 5.44612 7.14413 5.4315 7.0545 5.44875C6.96938 5.46525 6.89175 5.511 6.83588 5.57775C6.78263 5.64112 6.74963 5.72325 6.74963 5.81775C6.74963 8.90887 6.74963 15.0907 6.74963 18.1819C6.74963 18.3514 6.8565 18.4822 6.99487 18.5336C7.09912 18.5722 7.221 18.5659 7.32825 18.4965C9.71737 16.9515 14.4941 13.8604 16.8829 12.315ZM5.25 18.8715C5.25 15.4357 5.25 8.56425 5.25 5.12887C5.25 4.57912 5.55 4.074 6.033 3.8115C6.51637 3.54825 7.10325 3.57075 7.56488 3.86962C10.2199 5.5875 15.5299 9.02287 18.1845 10.7411C18.6135 11.0186 18.8693 11.4896 18.8693 12.0004C18.8693 12.5111 18.6131 12.9821 18.1845 13.2596C15.5299 14.9775 10.2195 18.4125 7.56488 20.1307C7.31775 20.2909 7.03425 20.3715 6.75 20.3715C6.504 20.3715 6.25762 20.3107 6.033 20.1889C5.55 19.926 5.25 19.4212 5.25 18.8715Z" fill="#1C1D20"/>
</svg>
