<svg width="24" height="24" viewBox="0 0 24 24" fill="none" xmlns="http://www.w3.org/2000/svg">
<path d="M12 3.75C16.5562 3.75 20.25 7.44375 20.25 12C20.25 16.5562 16.5562 20.25 12 20.25C7.44375 20.25 3.75 16.5562 3.75 12C3.75 7.44375 7.44375 3.75 12 3.75ZM15 12.75C15.414 12.75 15.75 12.4144 15.75 12C15.75 11.5856 15.414 11.25 15 11.25C14.907 11.25 13.9076 11.25 12.75 11.25C12.75 10.0924 12.75 9.093 12.75 9C12.75 8.586 12.4144 8.25 12 8.25C11.586 8.25 11.25 8.586 11.25 9C11.25 9.093 11.25 10.0924 11.25 11.25C10.0924 11.25 9.093 11.25 9 11.25C8.586 11.25 8.25 11.5856 8.25 12C8.25 12.4144 8.586 12.75 9 12.75C9.093 12.75 10.0924 12.75 11.25 12.75C11.25 13.9076 11.25 14.907 11.25 15C11.25 15.414 11.586 15.75 12 15.75C12.4144 15.75 12.75 15.414 12.75 15C12.75 14.907 12.75 13.9076 12.75 12.75C13.9076 12.75 14.907 12.75 15 12.75Z" fill="#1C1D20"/>
</svg>
