<svg width="24" height="24" viewBox="0 0 24 24" fill="none" xmlns="http://www.w3.org/2000/svg">
<path d="M9.375 4.125C8.75362 4.125 8.25 4.62863 8.25 5.25V13.875H14.625C15.6604 13.875 16.5 14.7146 16.5 15.75V17.25C16.5 18.0784 17.1716 18.75 18 18.75C18.8284 18.75 19.5 18.0784 19.5 17.25V5.25C19.5 4.62863 18.9964 4.125 18.375 4.125H9.375ZM11.0625 7.125C11.373 7.125 11.625 7.377 11.625 7.6875C11.625 7.998 11.373 8.25 11.0625 8.25C10.752 8.25 10.5 7.998 10.5 7.6875C10.5 7.377 10.752 7.125 11.0625 7.125ZM13.3125 7.125H16.3125C16.623 7.125 16.875 7.377 16.875 7.6875C16.875 7.998 16.623 8.25 16.3125 8.25H13.3125C13.002 8.25 12.75 7.998 12.75 7.6875C12.75 7.377 13.002 7.125 13.3125 7.125ZM11.0625 9.75C11.373 9.75 11.625 10.002 11.625 10.3125C11.625 10.623 11.373 10.875 11.0625 10.875C10.752 10.875 10.5 10.623 10.5 10.3125C10.5 10.002 10.752 9.75 11.0625 9.75ZM13.3125 9.75H16.3125C16.623 9.75 16.875 10.002 16.875 10.3125C16.875 10.623 16.623 10.875 16.3125 10.875H13.3125C13.002 10.875 12.75 10.623 12.75 10.3125C12.75 10.002 13.002 9.75 13.3125 9.75ZM5.25 15C4.62863 15 4.125 15.5036 4.125 16.125V16.875C4.125 18.5317 5.46825 19.875 7.125 19.875H16.656C16.8461 19.875 16.9162 19.6261 16.7527 19.5286C16.1201 19.1509 15.375 18.3855 15.375 16.875V16.125C15.375 15.5036 14.8714 15 14.25 15H5.25Z" fill="#1C1D20"/>
</svg>
