<svg width="24" height="24" viewBox="0 0 24 24" fill="none" xmlns="http://www.w3.org/2000/svg">
<path d="M6 4.125C4.96613 4.125 4.125 4.96613 4.125 6V9C4.125 10.0339 4.96613 10.875 6 10.875H9C10.0339 10.875 10.875 10.0339 10.875 9V6C10.875 4.96613 10.0339 4.125 9 4.125H6ZM14.625 4.125C13.5911 4.125 12.75 4.96613 12.75 6V9C12.75 10.0339 13.5911 10.875 14.625 10.875H17.625C18.6589 10.875 19.5 10.0339 19.5 9V6C19.5 4.96613 18.6589 4.125 17.625 4.125H14.625ZM6 5.625H9C9.207 5.625 9.375 5.79338 9.375 6V9C9.375 9.20662 9.207 9.375 9 9.375H6C5.793 9.375 5.625 9.20662 5.625 9V6C5.625 5.79338 5.793 5.625 6 5.625ZM14.625 5.625H17.625C17.832 5.625 18 5.79338 18 6V9C18 9.20662 17.832 9.375 17.625 9.375H14.625C14.418 9.375 14.25 9.20662 14.25 9V6C14.25 5.79338 14.418 5.625 14.625 5.625ZM6.75 6.75V8.25H8.25V6.75H6.75ZM15.375 6.75V8.25H16.875V6.75H15.375ZM6 12.75C4.96613 12.75 4.125 13.5911 4.125 14.625V17.625C4.125 18.6589 4.96613 19.5 6 19.5H9C10.0339 19.5 10.875 18.6589 10.875 17.625V14.625C10.875 13.5911 10.0339 12.75 9 12.75H6ZM12.75 12.75V15H15V12.75H12.75ZM15 15V17.25H17.25V15H15ZM17.25 15H19.5V12.75H17.25V15ZM17.25 17.25V19.5H19.5V17.25H17.25ZM15 17.25H12.75V19.5H15V17.25ZM6 14.25H9C9.207 14.25 9.375 14.4184 9.375 14.625V17.625C9.375 17.8316 9.207 18 9 18H6C5.793 18 5.625 17.8316 5.625 17.625V14.625C5.625 14.4184 5.793 14.25 6 14.25ZM6.75 15.375V16.875H8.25V15.375H6.75Z" fill="#1C1D20"/>
</svg>
