<svg width="24" height="24" viewBox="0 0 24 24" fill="none" xmlns="http://www.w3.org/2000/svg">
<path d="M19.5 8.91488V15.0848C19.5 19.1794 19.1794 19.5 15.0851 19.5H8.91488C4.82063 19.5 4.5 19.1794 4.5 15.0851V8.91488C4.5 4.82025 4.82063 4.5 8.91488 4.5H15.0848C19.1794 4.5 19.5 4.82025 19.5 8.91488ZM14.2673 15.75C14.3423 15.75 14.4172 15.7275 14.4818 15.6825C14.6047 15.5966 14.6648 15.4459 14.6344 15.2992L14.1281 12.8569L15.9701 11.2549C16.083 11.1566 16.1265 11.001 16.0815 10.8585C16.0365 10.716 15.9109 10.614 15.762 10.599L13.3174 10.3492L12.3435 8.1015C12.2846 7.96388 12.1493 7.875 12 7.875C11.8507 7.875 11.7154 7.96388 11.6558 8.10113L10.6819 10.3489L8.23725 10.5986C8.08875 10.614 7.96313 10.7156 7.91775 10.8581C7.87238 11.0006 7.91625 11.1562 8.02912 11.2545L9.87113 12.8565L9.36487 15.2989C9.3345 15.4459 9.3945 15.5966 9.5175 15.6821C9.64087 15.768 9.80288 15.7721 9.93038 15.693L12 14.4067L14.0693 15.6934C14.13 15.7312 14.1986 15.75 14.2673 15.75Z" fill="#1C1D20"/>
</svg>
