<svg width="24" height="24" viewBox="0 0 24 24" fill="none" xmlns="http://www.w3.org/2000/svg">
<path d="M17.6966 15.123L13.1535 19.5H6.39563C5.20801 19.5 4.36576 18.3146 4.77938 17.1994C5.75476 14.5703 8.61563 12.8032 11.8988 12.8032C14.2133 12.8036 16.3144 13.6837 17.6966 15.123ZM14.4634 20.9989C14.3378 21.048 14.196 20.9062 14.2504 20.7806L14.7416 19.6999L19.1993 15.237L20.0396 16.0721L15.5824 20.5297L14.4634 20.9989ZM20.4323 15.6735L19.6005 14.8361L20.0235 14.4184C20.2256 14.2163 20.5365 14.1892 20.7221 14.3749L20.8639 14.5223C21.0713 14.7296 21.0548 15.03 20.8474 15.2482L20.4323 15.6735ZM12 11.625C9.93226 11.625 8.25001 9.85875 8.25001 7.6875C8.25001 5.51625 9.93226 3.75 12 3.75C14.0678 3.75 15.75 5.51625 15.75 7.6875C15.75 9.85875 14.0678 11.625 12 11.625Z" fill="#1C1D20"/>
</svg>
