<svg width="24" height="24" viewBox="0 0 24 24" fill="none" xmlns="http://www.w3.org/2000/svg">
<path d="M19.005 9.63C19.005 13.1726 15.7774 17.934 13.8532 20.4566C13.4077 21.0401 12.7324 21.375 12 21.375C11.2676 21.375 10.5922 21.0401 10.1471 20.4566C8.223 17.934 4.995 13.1726 4.995 9.63C4.995 5.7675 8.1375 2.625 12 2.625C15.8625 2.625 19.005 5.7675 19.005 9.63ZM9.45037 12.7999C9.68175 12.5929 9.70162 12.2374 9.49462 12.0056C8.34112 10.7156 8.34037 8.77688 9.49349 7.4955C9.70125 7.2645 9.6825 6.909 9.4515 6.70087C9.22162 6.4935 8.86575 6.5115 8.65725 6.74288C7.11937 8.45175 7.119 11.0366 8.65612 12.7556C8.76712 12.8797 8.92125 12.9431 9.07575 12.9431C9.20925 12.9431 9.34312 12.8959 9.45037 12.7999ZM12 8.25C11.1716 8.25 10.5 8.92163 10.5 9.75C10.5 10.5784 11.1716 11.25 12 11.25C12.8284 11.25 13.5 10.5784 13.5 9.75C13.5 8.92163 12.8284 8.25 12 8.25ZM15.3439 12.7556C16.881 11.037 16.8806 8.45175 15.3427 6.74288C15.1342 6.5115 14.7787 6.4935 14.5485 6.70087C14.3175 6.90862 14.2987 7.2645 14.5065 7.4955C15.6596 8.77688 15.6589 10.7156 14.5054 12.0056C14.2984 12.2374 14.3182 12.5929 14.5496 12.7999C14.6569 12.8959 14.7911 12.9431 14.9242 12.9431C15.0787 12.9431 15.2329 12.8797 15.3439 12.7556Z" fill="#1C1D20"/>
</svg>
