<svg width="24" height="24" viewBox="0 0 24 24" fill="none" xmlns="http://www.w3.org/2000/svg">
<path d="M13.0891 5.00317C12.9811 5.00317 12.8732 5.02765 12.7727 5.07715C12.5294 5.1979 12.375 5.44579 12.375 5.71729V7.78638C9.86105 7.95493 7.73338 8.83415 6.3406 10.418C3.60235 13.5316 4.16471 18.1774 4.19021 18.3735C4.24009 18.7583 4.58615 19.0333 4.9739 18.9924C5.35978 18.9516 5.64263 18.6104 5.61038 18.2234C5.60588 18.1589 5.50523 16.5323 6.80423 15.1377C7.92654 13.9326 9.89955 13.2632 12.375 13.1338V15.1399C12.375 15.4114 12.5294 15.6593 12.7727 15.78C13.0161 15.9004 13.3064 15.8725 13.522 15.7075L19.6956 10.9958C19.8726 10.8608 19.9768 10.651 19.9768 10.4282C19.9768 10.2055 19.8726 9.9956 19.6956 9.8606L13.522 5.14966C13.3952 5.05291 13.2429 5.00317 13.0891 5.00317Z" fill="#1C1D20"/>
</svg>
