<svg width="24" height="24" viewBox="0 0 24 24" fill="none" xmlns="http://www.w3.org/2000/svg">
<path d="M19.6271 10.5086C19.9871 10.5705 20.25 10.8825 20.25 11.2477V12.7523C20.25 13.1175 19.9871 13.4295 19.6271 13.4914L18.3281 13.7149C18.18 14.2628 17.9647 14.7821 17.688 15.2633L18.4478 16.3387C18.6585 16.6369 18.6236 17.0437 18.3656 17.3018L17.3018 18.3656C17.0434 18.624 16.6369 18.6585 16.3387 18.4478L15.2633 17.6884C14.7821 17.9651 14.2628 18.18 13.7149 18.3285L13.4914 19.6275C13.4295 19.9871 13.1175 20.25 12.7523 20.25H11.2477C10.8825 20.25 10.5705 19.9871 10.5086 19.6271L10.2851 18.3281C9.73725 18.18 9.21788 17.9647 8.73675 17.688L7.66125 18.4474C7.36313 18.6581 6.95625 18.6233 6.69825 18.3652L5.63437 17.3014C5.37637 17.043 5.3415 16.6365 5.55225 16.3384L6.312 15.2629C6.03525 14.7817 5.82 14.2624 5.67188 13.7145L4.37288 13.491C4.01288 13.4295 3.75 13.1175 3.75 12.7523V11.2477C3.75 10.8825 4.01288 10.5705 4.37288 10.5086L5.67188 10.2851C5.82 9.73725 6.03525 9.21788 6.312 8.73675L5.55225 7.66125C5.3415 7.36313 5.37637 6.95625 5.63437 6.69825L6.69825 5.63437C6.95662 5.37637 7.36313 5.3415 7.66125 5.55225L8.73675 6.312C9.21788 6.03525 9.73725 5.82037 10.2851 5.67188L10.5086 4.37288C10.5705 4.01288 10.8825 3.75 11.2477 3.75H12.7523C13.1175 3.75 13.4295 4.01288 13.4914 4.37288L13.7149 5.67188C14.2628 5.82 14.7821 6.03525 15.2633 6.312L16.3387 5.55225C16.6369 5.3415 17.0437 5.37637 17.3018 5.63437L18.3656 6.69825C18.6236 6.95625 18.6585 7.36313 18.4478 7.66125L17.688 8.73675C17.9647 9.21788 18.18 9.73725 18.3281 10.2851L19.6271 10.5086ZM12 15C13.6567 15 15 13.6567 15 12C15 10.3432 13.6567 9 12 9C10.3432 9 9 10.3432 9 12C9 13.6567 10.3432 15 12 15Z" fill="#1C1D20"/>
</svg>
