<svg width="24" height="24" viewBox="0 0 24 24" fill="none" xmlns="http://www.w3.org/2000/svg">
<path d="M16.5 3.75C15.0529 3.75 13.875 4.9275 13.875 6.375C13.875 6.52968 13.891 6.68023 13.9167 6.82764L8.18774 9.69214C7.81583 9.48985 7.38973 9.375 6.9375 9.375C5.49038 9.375 4.3125 10.5525 4.3125 12C4.3125 13.4475 5.49038 14.625 6.9375 14.625C7.46572 14.625 7.9571 14.4669 8.36938 14.1973L13.8875 17.3826C13.8801 17.4625 13.875 17.5432 13.875 17.625C13.875 19.0725 15.0529 20.25 16.5 20.25C17.9471 20.25 19.125 19.0725 19.125 17.625C19.125 16.1775 17.9471 15 16.5 15C15.6755 15 14.9397 15.3834 14.458 15.98L9.35083 13.032C9.48688 12.715 9.5625 12.3662 9.5625 12C9.5625 11.5765 9.45939 11.1775 9.28052 10.823L14.5891 8.1687C15.0683 8.67888 15.7467 9 16.5 9C17.9471 9 19.125 7.8225 19.125 6.375C19.125 4.9275 17.9471 3.75 16.5 3.75Z" fill="#1C1D20"/>
</svg>
