<svg width="24" height="24" viewBox="0 0 24 24" fill="none" xmlns="http://www.w3.org/2000/svg">
<path d="M8.25 4.5C7.06346 4.5 6.05926 5.29201 5.7356 6.375H3.75C3.336 6.375 3 6.711 3 7.125C3 7.539 3.336 7.875 3.75 7.875H5.7356C6.05926 8.95799 7.06346 9.75 8.25 9.75C9.43654 9.75 10.4407 8.95799 10.7644 7.875H20.25C20.664 7.875 21 7.539 21 7.125C21 6.711 20.664 6.375 20.25 6.375H10.7644C10.4407 5.29201 9.43654 4.5 8.25 4.5ZM15.75 9.375C14.5635 9.375 13.5593 10.167 13.2356 11.25H3.75C3.336 11.25 3 11.586 3 12C3 12.414 3.336 12.75 3.75 12.75H13.2356C13.5593 13.833 14.5635 14.625 15.75 14.625C16.9365 14.625 17.9407 13.833 18.2644 12.75H20.25C20.664 12.75 21 12.414 21 12C21 11.586 20.664 11.25 20.25 11.25H18.2644C17.9407 10.167 16.9365 9.375 15.75 9.375ZM9.75 14.25C8.56346 14.25 7.55926 15.042 7.2356 16.125H3.75C3.336 16.125 3 16.461 3 16.875C3 17.289 3.336 17.625 3.75 17.625H7.2356C7.55926 18.708 8.56346 19.5 9.75 19.5C10.9365 19.5 11.9407 18.708 12.2644 17.625H20.25C20.664 17.625 21 17.289 21 16.875C21 16.461 20.664 16.125 20.25 16.125H12.2644C11.9407 15.042 10.9365 14.25 9.75 14.25Z" fill="#1C1D20"/>
</svg>
