<svg width="24" height="24" viewBox="0 0 24 24" fill="none" xmlns="http://www.w3.org/2000/svg">
<path d="M9.98657 3.75073C9.40203 3.73468 8.846 4.05108 8.53198 4.59741C8.16111 5.24316 7.8261 6.21621 7.61572 7.16308C8.42385 7.71883 10.1213 8.24999 12 8.24999C13.8787 8.24999 15.5762 7.71883 16.3835 7.16308C16.1732 6.21621 15.8382 5.24316 15.4673 4.59741C15.1088 3.97303 14.4335 3.64845 13.7607 3.77783C13.1712 3.89108 12.4136 4.19311 11.9993 4.19311C11.5849 4.19311 10.828 3.89108 10.2385 3.77783C10.1545 3.76165 10.0701 3.75302 9.98657 3.75073ZM6.88257 8.02001C5.19694 8.59114 4.125 9.4374 4.125 10.3843C4.125 11.3144 5.16066 12.1469 6.79395 12.7178C6.83115 13.0421 6.89566 13.3553 6.97925 13.6589L6.06006 14.0713C5.45481 14.3469 5.04818 14.9061 4.97168 15.5676C4.89518 16.2239 5.16161 16.8553 5.68286 17.2573C6.62224 17.9822 7.11887 18.4871 7.38062 18.8115C7.38062 18.8115 7.24835 19.0764 7.2041 19.1645C7.08785 19.397 7.10056 19.6732 7.23706 19.894C7.37356 20.1153 7.61512 20.25 7.875 20.25H16.125C16.3849 20.25 16.6261 20.1153 16.7629 19.894C16.8994 19.6728 16.9121 19.397 16.7959 19.1645C16.7516 19.0764 16.6194 18.8115 16.6194 18.8115C16.8811 18.4871 17.3785 17.9818 18.3179 17.2573C18.8387 16.8553 19.1044 16.2239 19.0283 15.5676C18.9522 14.9061 18.5452 14.3465 17.9399 14.0713L17.0208 13.6597C17.1044 13.3558 17.1688 13.0423 17.2061 12.7178C18.8393 12.1469 19.875 11.3144 19.875 10.3843C19.875 9.4374 18.8031 8.59114 17.1174 8.02001C16.0157 8.83339 13.9867 9.37499 12 9.37499C10.0132 9.37499 7.98432 8.83339 6.88257 8.02001ZM8.40381 13.1543C9.48265 13.374 10.703 13.5 12 13.5C13.297 13.5 14.5173 13.374 15.5962 13.1543C15.0953 15.0832 13.4258 16.5 12 16.5C10.5742 16.5 8.90467 15.0832 8.40381 13.1543Z" fill="#1C1D20"/>
</svg>
