<svg width="24" height="24" viewBox="0 0 24 24" fill="none" xmlns="http://www.w3.org/2000/svg">
<path d="M16.2876 2.25C16.0019 2.25 15.7413 2.41209 15.6145 2.66821L14.4492 5.03027L11.8425 5.40894C11.5598 5.45019 11.3257 5.64793 11.2376 5.91943C11.1491 6.19093 11.2229 6.48898 11.4273 6.68848L13.3132 8.52686L12.8679 11.1233C12.8199 11.4045 12.9354 11.6888 13.166 11.8564C13.2969 11.9513 13.4517 12 13.6069 12C13.7262 12 13.8464 11.9713 13.9563 11.9128L16.2876 10.6875L18.6196 11.9136C18.8724 12.0463 19.1782 12.0241 19.4092 11.8564C19.6398 11.6884 19.756 11.4038 19.708 11.1226L19.262 8.52686L21.1487 6.68848C21.3531 6.48935 21.4265 6.19093 21.3384 5.91943C21.2503 5.64793 21.0154 5.44981 20.7327 5.40894L18.126 5.03027L16.9607 2.66821C16.8343 2.41209 16.5734 2.25 16.2876 2.25ZM11.4624 8.29614C7.78817 10.299 3.42711 14.6374 3.21974 14.8447C3.00486 15.0592 2.94089 15.382 3.05714 15.6621C3.17339 15.9426 3.44664 16.125 3.75001 16.125H5.8755L3.4629 20.647C3.30915 20.9353 3.35979 21.2897 3.58741 21.5237C3.73216 21.6722 3.92775 21.75 4.12575 21.75C4.23937 21.75 4.3536 21.7238 4.45973 21.6702L8.36793 19.7168L9.50099 21.416C9.64499 21.632 9.8897 21.7564 10.1485 21.7493C10.4072 21.741 10.6438 21.6007 10.7739 21.3765C10.8092 21.3153 14.2254 15.4553 17.3687 12.5273L16.2869 11.959L14.4815 12.9089C14.1923 13.0541 13.8975 13.125 13.6084 13.125C13.2132 13.125 12.8341 13.003 12.512 12.7727C11.9285 12.3426 11.644 11.6465 11.7554 10.946L12.1033 8.92017L11.4624 8.29614Z" fill="#1C1D20"/>
</svg>
