<svg width="24" height="24" viewBox="0 0 24 24" fill="none" xmlns="http://www.w3.org/2000/svg">
<path d="M17.25 20.625C17.1128 20.625 16.9755 20.5875 16.8536 20.5118L12 17.493L7.14638 20.5118C6.89138 20.6704 6.56663 20.6614 6.321 20.49C6.075 20.3183 5.95463 20.0168 6.01613 19.7231L7.20113 13.9991L2.883 10.2431C2.65725 10.047 2.56988 9.73537 2.66025 9.45075C2.75025 9.16575 3.0015 8.96175 3.29888 8.93137L9.02925 8.34562L11.3119 3.07687C11.4304 2.80275 11.7011 2.625 12 2.625C12.2989 2.625 12.5696 2.80275 12.6881 3.07687L14.9708 8.34562L20.7011 8.93137C20.9985 8.96175 21.2498 9.16575 21.3398 9.45075C21.4301 9.73575 21.3428 10.047 21.117 10.2431L16.7993 13.9991L17.9843 19.7231C18.0454 20.0168 17.9254 20.3183 17.6794 20.49C17.5508 20.5796 17.4004 20.625 17.25 20.625Z" fill="#1C1D20"/>
</svg>
