<svg width="24" height="24" viewBox="0 0 24 24" fill="none" xmlns="http://www.w3.org/2000/svg">
<path d="M10.5 2.625C9.25725 2.625 8.25 3.63225 8.25 4.875V5.625V19.125H15.75V5.625V4.875C15.75 3.63225 14.7428 2.625 13.5 2.625H10.5ZM10.5 4.125H13.5C13.914 4.125 14.25 4.46062 14.25 4.875H9.75C9.75 4.46062 10.086 4.125 10.5 4.125ZM5.625 4.875C4.38225 4.875 3.375 5.88225 3.375 7.125V16.875C3.375 18.1178 4.38225 19.125 5.625 19.125H6.75V4.875H5.625ZM17.25 4.875V19.125H18.375C19.6178 19.125 20.625 18.1178 20.625 16.875V7.125C20.625 5.88225 19.6178 4.875 18.375 4.875H17.25Z" fill="#1C1D20"/>
</svg>
