<svg width="24" height="24" viewBox="0 0 24 24" fill="none" xmlns="http://www.w3.org/2000/svg">
<path d="M15.8774 3.31494C15.827 3.31504 15.7758 3.31991 15.7229 3.32886L11.4771 4.07666L16.9688 6.07544L16.5916 3.93677C16.5135 3.52858 16.2303 3.31425 15.8774 3.31494ZM9.39112 4.57764C9.09931 4.59242 8.83065 4.77834 8.72462 5.07056L6.31934 11.6777C5.01659 15.2586 9.59193 20.4663 10.1177 21.0483C10.2609 21.207 10.4636 21.2952 10.6743 21.2952C10.7081 21.2952 10.7424 21.2935 10.7769 21.2886C11.5539 21.1806 18.4067 20.1318 19.7102 16.5513L22.1148 9.94409C22.2561 9.55484 22.055 9.12491 21.6658 8.98316L9.68555 4.62232C9.58843 4.58688 9.48839 4.57271 9.39112 4.57764ZM7.6421 4.75342L3.16627 5.54224C2.75827 5.61424 2.486 6.00362 2.55762 6.41162L3.77857 13.3359C3.9807 14.4827 4.73654 15.4855 5.70704 16.3337C5.02041 14.6826 4.67935 12.8926 5.26173 11.2925L7.6421 4.75342ZM10.8347 9.55518C11.0293 9.54523 11.229 9.57366 11.4236 9.64453C12.2021 9.92803 12.6036 10.7886 12.3201 11.5671L9.50098 10.541C9.71333 9.95714 10.2509 9.58502 10.8347 9.55518ZM16.5161 11.6235C16.7107 11.6136 16.9104 11.6413 17.105 11.7122C17.8835 11.9957 18.2857 12.8563 18.0022 13.6348L15.1824 12.6086C15.395 12.0248 15.9324 11.6534 16.5161 11.6235ZM10.6274 14.1233L14.8557 15.6628C14.4308 16.8306 13.1399 17.4324 11.9722 17.0076C10.8044 16.5827 10.2026 15.291 10.6274 14.1233Z" fill="#1C1D20"/>
</svg>
