<svg width="24" height="24" viewBox="0 0 24 24" fill="none" xmlns="http://www.w3.org/2000/svg">
<path d="M15.0851 4.5C19.1798 4.5 19.5 4.82025 19.5 8.91488V15.0848C19.5 19.1794 19.1798 19.5 15.0851 19.5H8.91488C4.82063 19.5 4.5 19.1794 4.5 15.0851V8.91488C4.5 4.82025 4.82063 4.5 8.91488 4.5H15.0851ZM16.0245 11.1514V9.57788C16.0245 9.57788 15.1927 9.582 14.4904 8.9385C13.9001 8.39775 13.851 7.38488 13.851 7.38488H12.2775C12.2775 7.38488 12.2775 12.7541 12.2775 13.6099C12.2775 14.4653 11.5331 14.9081 10.9991 14.9081C10.5967 14.9081 9.68137 14.5927 9.68137 13.6001C9.68137 12.5584 10.7336 12.2921 11.0089 12.2921C11.2841 12.2921 11.3925 12.351 11.3925 12.351V10.6901C11.3925 10.6901 11.1368 10.6657 10.95 10.6594C9.36188 10.6057 8.049 12.0307 8.049 13.5997C8.049 14.9254 9.08587 16.5304 10.9796 16.5304C12.9967 16.5304 13.92 14.8481 13.92 13.6095C13.92 12.7046 13.92 10.5218 13.92 10.5218C13.92 10.5218 14.5001 10.8461 14.9722 10.9939C15.4444 11.1416 16.0245 11.1514 16.0245 11.1514Z" fill="#1C1D20"/>
</svg>
