<svg width="24" height="24" viewBox="0 0 24 24" fill="none" xmlns="http://www.w3.org/2000/svg">
<path d="M10.5 2.625C9.46613 2.625 8.625 3.46613 8.625 4.5V5.625H4.875C4.461 5.625 4.125 5.961 4.125 6.375C4.125 6.789 4.461 7.125 4.875 7.125H5.66602L6.29736 18.4995C6.36411 19.6913 7.35008 20.625 8.5437 20.625H15.4563C16.6495 20.625 17.6359 19.6913 17.7026 18.4995L18.334 7.125H19.125C19.539 7.125 19.875 6.789 19.875 6.375C19.875 5.961 19.539 5.625 19.125 5.625H15.375V4.5C15.375 3.46613 14.5339 2.625 13.5 2.625H10.5ZM10.5 4.125H13.5C13.707 4.125 13.875 4.29338 13.875 4.5V5.625H10.125V4.5C10.125 4.29338 10.293 4.125 10.5 4.125ZM12 8.71875C12.3626 8.71875 12.6562 9.01275 12.6562 9.375V16.875C12.6562 17.2373 12.3626 17.5312 12 17.5312C11.6374 17.5312 11.3438 17.2373 11.3438 16.875V9.375C11.3438 9.01275 11.6374 8.71875 12 8.71875ZM15.0029 8.71875C15.3648 8.7315 15.6481 9.03546 15.6357 9.39771L15.3743 16.9299C15.3619 17.2847 15.0716 17.5639 14.7195 17.5635C14.7116 17.5635 14.7039 17.5627 14.696 17.5627C14.3342 17.55 14.0509 17.246 14.0632 16.8838L14.324 9.35156C14.3367 8.98969 14.6399 8.70862 15.0029 8.71875ZM8.99634 8.71948C9.35784 8.71086 9.66254 8.99005 9.67529 9.35229L9.93677 16.8845C9.94952 17.2468 9.6662 17.5507 9.30396 17.5635C9.29645 17.5635 9.28839 17.5635 9.28052 17.5635C8.92877 17.5635 8.63737 17.2843 8.625 16.9299L8.36353 9.39771C8.35078 9.03546 8.63409 8.73223 8.99634 8.71948Z" fill="#1C1D20"/>
</svg>
