<svg width="24" height="24" viewBox="0 0 24 24" fill="none" xmlns="http://www.w3.org/2000/svg">
<path d="M21.375 6.41775C20.88 7.15763 20.2534 7.80788 19.5315 8.32913C19.5382 8.48775 19.542 8.64675 19.542 8.80688C19.542 13.6868 15.8287 19.3136 9.03599 19.3136C6.95024 19.3136 4.23224 18.5831 3.37537 17.655C3.66487 17.6895 3.95887 17.7068 4.25662 17.7068C5.98724 17.7068 7.57949 17.1161 8.84287 16.1258C7.22699 16.0961 5.86312 15.0278 5.39324 13.5608C6.12824 13.6763 7.06087 13.497 7.06087 13.497C7.06087 13.497 4.17337 13.0013 4.09874 9.82988C4.93349 10.314 5.77124 10.2915 5.77124 10.2915C5.77124 10.2915 4.10587 9.26625 4.12912 7.21838C4.14299 6.0105 4.62824 5.361 4.62824 5.361C7.78349 9.24638 12.24 9.21975 12.24 9.21975C12.24 9.21975 12.1444 8.66813 12.1444 8.37863C12.1444 6.33975 13.7974 4.686 15.837 4.686C16.899 4.686 17.8586 5.1345 18.5321 5.85263C19.374 5.6865 20.1645 5.379 20.8777 4.956C20.5556 6.246 19.2544 6.999 19.2544 6.999C19.2544 6.999 20.3677 6.87563 21.375 6.41775Z" fill="#1C1D20"/>
</svg>
