<svg width="24" height="24" viewBox="0 0 24 24" fill="none" xmlns="http://www.w3.org/2000/svg">
<path d="M6.16639 6.16637C9.38815 2.94461 14.6119 2.94461 17.8337 6.16637C21.0554 9.38812 21.0554 14.6119 17.8337 17.8336C14.6119 21.0554 9.38815 21.0554 6.16639 17.8336C2.94464 14.6119 2.94464 9.38812 6.16639 6.16637ZM14.6517 10.409C14.9444 10.1163 14.9447 9.64136 14.6517 9.34835C14.3587 9.05534 13.8838 9.05561 13.591 9.34835C13.5253 9.41411 12.8186 10.1208 12 10.9393C11.1815 10.1208 10.4748 9.41411 10.409 9.34835C10.1163 9.05561 9.64138 9.05534 9.34837 9.34835C9.05563 9.64109 9.05563 10.1163 9.34837 10.409C9.41414 10.4748 10.1208 11.1814 10.9394 12C10.1208 12.8186 9.41414 13.5252 9.34837 13.591C9.05563 13.8837 9.05537 14.3586 9.34837 14.6517C9.64138 14.9447 10.1163 14.9444 10.409 14.6517C10.4748 14.5859 11.1815 13.8792 12 13.0607C12.8186 13.8792 13.5253 14.5859 13.591 14.6517C13.8838 14.9444 14.3589 14.9444 14.6517 14.6517C14.9447 14.3586 14.9444 13.8837 14.6517 13.591C14.5859 13.5252 13.8793 12.8186 13.0607 12C13.8793 11.1814 14.5859 10.4748 14.6517 10.409Z" fill="#1C1D20"/>
</svg>
