<svg width="24" height="24" viewBox="0 0 24 24" fill="none" xmlns="http://www.w3.org/2000/svg">
<path d="M5.89893 5.625C5.50143 5.625 5.13003 5.7334 4.81128 5.9209L10.7439 11.5613C11.3476 12.1313 12.2891 12.1313 12.8928 11.5613L18.821 5.92896C18.5023 5.73396 18.1273 5.625 17.7261 5.625H5.89893ZM4.0166 6.71997C3.84785 7.02372 3.75 7.37631 3.75 7.74756V15.8774C3.75 17.0474 4.71393 18 5.89893 18H13.5037C13.4999 17.9362 13.5 17.8763 13.5 17.8125C13.5 14.8088 15.9338 12.375 18.9375 12.375C19.2563 12.375 19.5712 12.4015 19.875 12.4578V7.74756C19.875 7.38006 19.7815 7.03104 19.6128 6.72729L13.6685 12.375C13.1472 12.8663 12.4836 13.114 11.8198 13.114C11.1523 13.114 10.4887 12.8663 9.97119 12.375L4.0166 6.71997ZM18.9375 13.5C16.5559 13.5 14.625 15.4309 14.625 17.8125C14.625 20.1941 16.5559 22.125 18.9375 22.125C21.3191 22.125 23.25 20.1941 23.25 17.8125C23.25 15.4309 21.3191 13.5 18.9375 13.5ZM18.9426 15.3765C19.2944 15.3765 19.5015 15.5842 19.5015 15.939C19.5015 15.9806 19.499 16.0381 19.4956 16.0891L19.4377 18.0769C19.428 18.4062 19.2618 18.5984 18.939 18.5984C18.6131 18.5984 18.4503 18.4062 18.4402 18.0769L18.3801 16.0891C18.3801 16.0377 18.3765 15.9806 18.3765 15.939C18.3765 15.5842 18.5879 15.3765 18.9426 15.3765ZM18.939 19.1895C19.3008 19.1895 19.5967 19.464 19.5967 19.812C19.5967 20.1634 19.3008 20.4382 18.939 20.4382C18.5741 20.4382 18.2783 20.1634 18.2783 19.812C18.2783 19.464 18.5741 19.1895 18.939 19.1895Z" fill="#1C1D20"/>
</svg>
