<svg width="24" height="24" viewBox="0 0 24 24" fill="none" xmlns="http://www.w3.org/2000/svg">
<path d="M20.625 12C20.625 13.2638 19.848 14.3445 18.7463 14.7945C19.2071 15.8918 18.9923 17.2054 18.099 18.099C17.2054 18.9926 15.8918 19.2071 14.7945 18.7463C14.3445 19.848 13.2638 20.625 12 20.625C10.7362 20.625 9.6555 19.848 9.2055 18.7463C8.10825 19.2071 6.79463 18.9923 5.901 18.099C5.00738 17.2054 4.79288 15.8918 5.25375 14.7945C4.152 14.3445 3.375 13.2638 3.375 12C3.375 10.7362 4.152 9.6555 5.25375 9.2055C4.79288 8.10825 5.00775 6.79463 5.901 5.901C6.79425 5.00738 8.10825 4.79288 9.2055 5.25375C9.6555 4.152 10.7362 3.375 12 3.375C13.2638 3.375 14.3445 4.152 14.7945 5.25375C15.8918 4.79288 17.2054 5.00775 18.099 5.901C18.9926 6.79463 19.2071 8.10825 18.7463 9.2055C19.848 9.6555 20.625 10.7362 20.625 12ZM16.0046 9.55725C16.23 9.20963 16.1306 8.745 15.783 8.52C15.4343 8.295 14.9704 8.394 14.7454 8.74163L11.1045 14.3614L9.18825 12.183C8.91488 11.8721 8.4405 11.8414 8.12963 12.1155C7.81875 12.3889 7.78837 12.8629 8.06175 13.1741L10.6324 16.0958C10.7756 16.2581 10.9811 16.3504 11.1956 16.3504C11.214 16.3504 11.2324 16.3496 11.2504 16.3485C11.4847 16.3313 11.697 16.2052 11.8249 16.0084L16.0046 9.55725Z" fill="#1C1D20"/>
</svg>
