<svg width="24" height="24" viewBox="0 0 24 24" fill="none" xmlns="http://www.w3.org/2000/svg">
<path d="M17.625 7.5C18.8659 7.5 19.875 8.50912 19.875 9.75V17.25C19.875 18.4909 18.8659 19.5 17.625 19.5H6.375C5.13412 19.5 4.125 18.4909 4.125 17.25V6.75C4.125 5.50912 5.13412 4.5 6.375 4.5H17.25C17.664 4.5 18 4.836 18 5.25C18 5.664 17.664 6 17.25 6H6.375C5.96137 6 5.625 6.33637 5.625 6.75C5.625 7.16363 5.96137 7.5 6.375 7.5H17.625ZM15.75 14.625C16.3714 14.625 16.875 14.1214 16.875 13.5C16.875 12.8786 16.3714 12.375 15.75 12.375C15.1286 12.375 14.625 12.8786 14.625 13.5C14.625 14.1214 15.1286 14.625 15.75 14.625Z" fill="#1C1D20"/>
</svg>
