<svg width="24" height="24" viewBox="0 0 24 24" fill="none" xmlns="http://www.w3.org/2000/svg">
<path d="M19.125 14.25C19.539 14.25 19.875 14.586 19.875 15V19.5C19.875 19.914 19.539 20.25 19.125 20.25H14.625C14.211 20.25 13.875 19.914 13.875 19.5V15C13.875 14.586 14.211 14.25 14.625 14.25H19.125ZM17.625 13.125H16.125V11.625H17.625V13.125ZM20.2177 6.78225C20.5106 7.07512 20.5106 7.54987 20.2177 7.84275L17.4052 10.6552C17.112 10.9485 16.6376 10.9481 16.3447 10.6552L13.5322 7.84275C13.2394 7.54987 13.2394 7.07512 13.5322 6.78225L16.3447 3.96975C16.6376 3.67687 17.1124 3.67687 17.4052 3.96975L20.2177 6.78225ZM12.375 7.875H10.875V6.375H12.375V7.875ZM6.93749 4.125C8.69512 4.125 10.125 5.55487 10.125 7.3125C10.125 9.07012 8.69512 10.5 6.93749 10.5C5.17987 10.5 3.74999 9.07012 3.74999 7.3125C3.74999 5.55487 5.17987 4.125 6.93749 4.125ZM7.49999 13.125H5.99999V11.625H7.49999V13.125ZM10.0245 19.125C10.3117 19.6237 9.95249 20.25 9.37499 20.25H4.12499C3.54862 20.25 3.18712 19.6249 3.47549 19.125L6.10049 14.5781C6.38849 14.0794 7.11074 14.0779 7.39987 14.5781L10.0245 19.125Z" fill="#1C1D20"/>
</svg>
