<svg width="24" height="24" viewBox="0 0 24 24" fill="none" xmlns="http://www.w3.org/2000/svg">
<path d="M11.8953 3C10.8603 3 10.0203 3.84 10.0203 4.875C10.0203 5.91 10.8603 6.75 11.8953 6.75C12.9303 6.75 13.7703 5.91 13.7703 4.875C13.7703 3.84 12.9303 3 11.8953 3ZM4.6875 7.875C4.377 7.875 4.125 8.12663 4.125 8.4375C4.125 8.72731 4.34474 8.96244 4.62598 8.99341L4.62671 8.99634L9.75 9.7207V20.25C9.75 20.6644 10.0856 21 10.5 21C10.9144 21 11.25 20.6644 11.25 20.25L12 14.625H12.75L14.3005 15.8613L12.5134 16.9043L12.4146 16.9541L12.416 16.9563C12.1701 17.0794 12 17.3312 12 17.625C12 18.0394 12.3356 18.375 12.75 18.375C12.8705 18.375 12.9831 18.3442 13.084 18.2937L13.0854 18.2959L16.0854 16.7959C16.2973 16.6898 16.4467 16.4901 16.4883 16.2568C16.5299 16.0236 16.4588 15.7841 16.2964 15.6116L16.2656 15.5793L14.25 12.75V9.7207L19.3865 8.99268L19.3894 8.99194C19.6633 8.9542 19.875 8.72205 19.875 8.4375C19.875 8.12663 19.623 7.875 19.3125 7.875H4.6875Z" fill="#1C1D20"/>
</svg>
