<svg width="24" height="24" viewBox="0 0 24 24" fill="none" xmlns="http://www.w3.org/2000/svg">
<path d="M8.91504 4.5C4.82079 4.5 4.5 4.82041 4.5 8.91504V15.085C4.5 19.1792 4.82079 19.5 8.91504 19.5H15.085C19.1792 19.5 19.5 19.1796 19.5 15.085V8.91504C19.5 4.82041 19.1796 4.5 15.085 4.5H8.91504ZM9 7.125H9.51196L10.0254 8.625L10.5374 7.125H11.05L10.281 9.375V10.875H9.76904V9.375L9 7.125ZM11.8184 8.12549C12.067 8.12549 12.2321 8.16166 12.3926 8.30566C12.5471 8.44516 12.5874 8.65499 12.5874 8.87549V10.125C12.5874 10.3744 12.5553 10.5443 12.3948 10.6838C12.241 10.829 12.0914 10.875 11.8184 10.875C11.557 10.875 11.4057 10.8286 11.2456 10.6838C11.0911 10.5376 11.05 10.374 11.05 10.125V8.87549C11.0395 8.53499 11.084 8.43291 11.2441 8.30054C11.4106 8.16741 11.5446 8.12549 11.8184 8.12549ZM13.0994 8.12549H13.6121V10.125C13.6121 10.3646 13.8144 10.3755 13.8677 10.3755C13.9149 10.3755 14.1214 10.2956 14.124 10.125V8.12549H14.6367V10.875H14.124V10.6245C14.0111 10.7464 13.8731 10.875 13.6121 10.875C13.3511 10.875 13.0994 10.6185 13.0994 10.3755V8.12549ZM11.8184 8.625C11.6732 8.625 11.562 8.67186 11.562 8.87549V10.125C11.562 10.3717 11.7415 10.3755 11.8184 10.3755C11.9012 10.3755 12.0747 10.3672 12.0747 10.125V8.87549C12.0747 8.62499 11.8952 8.625 11.8184 8.625ZM8.18628 12H15.8137C16.095 12 16.3653 12.1118 16.5645 12.3113C16.7636 12.5104 16.875 12.7797 16.875 13.0613V15.8137C16.875 16.095 16.7632 16.3653 16.5637 16.5645C16.3646 16.7636 16.0953 16.875 15.8137 16.875H8.18628C7.90503 16.875 7.63467 16.7632 7.43555 16.5637C7.23642 16.365 7.125 16.0953 7.125 15.8137V13.0613C7.125 12.78 7.23678 12.5097 7.43628 12.3105C7.6354 12.1114 7.90465 12 8.18628 12ZM8.4375 12.5676V13.0759H8.9458V16.125H9.4541V13.0759H9.96167V12.5676H8.4375ZM12.249 12.5676V16.125H12.7573V15.8708C12.8552 15.9856 12.9979 16.1276 13.2649 16.125C13.4231 16.1235 13.5461 15.9962 13.6274 15.8965C13.7099 15.7952 13.7732 15.6782 13.7732 15.49V13.9651C13.7732 13.7457 13.7035 13.5975 13.615 13.4854C13.5269 13.3732 13.3977 13.3147 13.2327 13.3147C13.1502 13.3147 13.068 13.3379 12.9858 13.3799C12.9033 13.4208 12.8158 13.4927 12.7573 13.5842V12.5676H12.249ZM10.2158 13.3301V15.6167C10.2158 15.7757 10.2837 15.8548 10.3425 15.9309C10.4078 16.0142 10.5477 16.125 10.6707 16.125C10.7708 16.125 10.8773 16.1286 10.9834 16.0693C11.0891 16.0165 11.1383 15.9822 11.2324 15.8708V16.125H11.7407V13.3301H11.2324V15.3625C11.1863 15.4218 11.1849 15.6144 10.9783 15.6167C10.7923 15.6182 10.7241 15.421 10.7241 15.3625V13.3301H10.2158ZM14.8396 13.3301C14.5985 13.3301 14.3751 13.3891 14.2566 13.511C14.1085 13.6629 14.0281 13.8334 14.0281 14.0632V15.2593C14.0281 15.5192 14.0985 15.7202 14.2332 15.8672C14.3693 16.0142 14.5578 16.0847 14.7993 16.0847C15.0629 16.0847 15.2643 16.0195 15.3933 15.8782C15.5294 15.7428 15.5522 15.5368 15.5522 15.2593V15.1084H15.0439V15.2358C15.0439 15.3892 15.029 15.5066 14.9934 15.5486C14.9582 15.5951 14.8929 15.6156 14.7898 15.6167C14.6964 15.6178 14.6258 15.5924 14.5906 15.5339C14.555 15.4807 14.5356 15.3889 14.5356 15.2476V14.8542H15.5522V14.0632C15.5522 13.8097 15.5099 13.6522 15.3794 13.5168C15.2511 13.3815 15.0815 13.3301 14.8396 13.3301ZM13.0107 13.7117C13.151 13.7117 13.2649 13.8383 13.2649 14.0925V15.3684C13.2649 15.5087 13.151 15.6167 13.0107 15.6167C12.8705 15.6167 12.7588 15.5631 12.7566 15.49V13.9651C12.7588 13.8376 12.8705 13.7117 13.0107 13.7117ZM14.7898 13.8384C14.93 13.8384 15.0432 13.9362 15.0432 14.0925V14.3467H14.5356V14.0925C14.5379 13.9564 14.6495 13.8384 14.7898 13.8384Z" fill="#1C1D20"/>
</svg>
